<svg xmlns="http://www.w3.org/2000/svg" xmlns:xlink="http://www.w3.org/1999/xlink" width="1080" zoomAndPan="magnify" viewBox="0 0 810 1439.999935" height="1920" preserveAspectRatio="xMidYMid meet" version="1.2"><defs><clipPath id="0847dad673"><path d="M 260 931 L 547 931 L 547 939.449219 L 260 939.449219 Z M 260 931 "/></clipPath><clipPath id="9c7866d414"><path d="M 318 418.199219 L 497 418.199219 L 497 425 L 318 425 Z M 318 418.199219 "/></clipPath><clipPath id="69cefd077d"><path d="M 492 418.199219 L 509 418.199219 L 509 433 L 492 433 Z M 492 418.199219 "/></clipPath></defs><g id="ec81e92a92"><rect x="0" width="810" y="0" height="1439.999935" style="fill:#ffffff;fill-opacity:1;stroke:none;"/><rect x="0" width="810" y="0" height="1439.999935" style="fill:#ffffff;fill-opacity:1;stroke:none;"/><path style=" stroke:none;fill-rule:nonzero;fill:#000000;fill-opacity:1;" d="M 383.367188 488.246094 C 376.066406 487.855469 368.65625 487.554688 361.34375 487.9375 C 360.742188 487.96875 360.738281 488.84375 361.34375 488.875 C 368.65625 489.261719 376.0625 488.960938 383.367188 488.566406 C 383.570312 488.558594 383.570312 488.257812 383.367188 488.246094 "/><path style=" stroke:none;fill-rule:nonzero;fill:#000000;fill-opacity:1;" d="M 392.179688 484.386719 C 381.710938 484.425781 371.171875 484.230469 360.71875 484.820312 C 360.132812 484.855469 360.125 485.730469 360.71875 485.742188 C 371.1875 485.980469 381.714844 485.425781 392.179688 485.105469 C 392.636719 485.089844 392.640625 484.386719 392.179688 484.386719 "/><path style=" stroke:none;fill-rule:nonzero;fill:#000000;fill-opacity:1;" d="M 416.75 485.9375 C 428.824219 485.816406 440.917969 486.15625 452.980469 485.957031 C 453.488281 485.949219 453.476562 485.222656 452.980469 485.179688 C 441.066406 484.148438 428.683594 485.121094 416.75 485.699219 C 416.597656 485.707031 416.59375 485.9375 416.75 485.9375 "/><path style=" stroke:none;fill-rule:nonzero;fill:#000000;fill-opacity:1;" d="M 429.507812 489.136719 C 436.945312 489.46875 444.46875 489.3125 451.921875 489.4375 C 452.101562 489.4375 452.089844 489.183594 451.921875 489.167969 C 444.597656 488.359375 436.820312 488.070312 429.496094 489.058594 C 429.449219 489.066406 429.464844 489.136719 429.507812 489.136719 "/><path style=" stroke:none;fill-rule:nonzero;fill:#000000;fill-opacity:1;" d="M 383.652344 534.878906 C 375.9375 534.222656 367.902344 533.527344 360.179688 534.296875 C 359.507812 534.367188 359.480469 535.339844 360.179688 535.363281 C 367.988281 535.644531 375.828125 535.160156 383.652344 535.417969 C 384.003906 535.429688 383.992188 534.90625 383.652344 534.878906 "/><path style=" stroke:none;fill-rule:nonzero;fill:#000000;fill-opacity:1;" d="M 434.683594 535.976562 C 440.292969 536.351562 446.335938 536.828125 451.929688 536.207031 C 452.550781 536.132812 452.554688 535.304688 451.929688 535.234375 C 446.335938 534.613281 440.296875 535.089844 434.683594 535.464844 C 434.359375 535.488281 434.359375 535.953125 434.683594 535.976562 "/><path style=" stroke:none;fill-rule:nonzero;fill:#000000;fill-opacity:1;" d="M 381.570312 556.433594 C 374.53125 556.421875 367.558594 555.6875 360.535156 555.472656 C 360.003906 555.460938 359.859375 556.34375 360.410156 556.429688 C 367.359375 557.484375 374.5625 557.304688 381.570312 557.082031 C 381.984375 557.070312 381.988281 556.433594 381.570312 556.433594 "/><path style=" stroke:none;fill-rule:nonzero;fill:#000000;fill-opacity:1;" d="M 434.339844 557.734375 C 439.519531 557.535156 444.707031 557.410156 449.867188 556.902344 C 450.386719 556.847656 450.410156 556.0625 449.867188 556.074219 C 444.679688 556.191406 439.507812 556.695312 434.339844 557.117188 C 433.945312 557.148438 433.9375 557.75 434.339844 557.734375 "/><path style=" stroke:none;fill-rule:nonzero;fill:#000000;fill-opacity:1;" d="M 439.203125 502.71875 C 445.738281 502.792969 452.335938 503.078125 458.863281 502.597656 C 459.101562 502.582031 459.101562 502.246094 458.863281 502.230469 C 452.335938 501.789062 445.738281 502.117188 439.203125 502.226562 C 438.882812 502.234375 438.882812 502.714844 439.203125 502.71875 "/><path style=" stroke:none;fill-rule:nonzero;fill:#000000;fill-opacity:1;" d="M 436.316406 521.390625 C 443.300781 521.742188 450.582031 521.695312 457.550781 521.070312 C 457.890625 521.042969 457.902344 520.546875 457.550781 520.53125 C 450.554688 520.25 443.28125 520.574219 436.316406 521.265625 C 436.234375 521.273438 436.230469 521.386719 436.316406 521.390625 "/><path style=" stroke:none;fill-rule:nonzero;fill:#000000;fill-opacity:1;" d="M 379.953125 503.652344 C 370.644531 503.367188 361.199219 504.261719 351.902344 504.742188 C 351.492188 504.761719 351.488281 505.394531 351.902344 505.378906 C 361.210938 505.035156 370.699219 505.089844 379.953125 503.988281 C 380.160156 503.964844 380.171875 503.660156 379.953125 503.652344 "/><path style=" stroke:none;fill-rule:nonzero;fill:#000000;fill-opacity:1;" d="M 380.480469 521.675781 C 371.625 521.585938 362.269531 520.964844 353.476562 521.972656 C 353.082031 522.015625 353.074219 522.554688 353.476562 522.59375 C 362.292969 523.382812 371.632812 522.535156 380.480469 522.230469 C 380.835938 522.21875 380.839844 521.679688 380.480469 521.675781 "/><path style=" stroke:none;fill-rule:nonzero;fill:#000000;fill-opacity:1;" d="M 373.402344 524.894531 C 367.464844 524.855469 361.507812 524.675781 355.574219 524.84375 C 355.277344 524.851562 355.277344 525.296875 355.574219 525.304688 C 361.507812 525.472656 367.464844 525.289062 373.402344 525.257812 C 373.636719 525.253906 373.636719 524.894531 373.402344 524.894531 "/><path style=" stroke:none;fill-rule:nonzero;fill:#000000;fill-opacity:1;" d="M 366.320312 501.023438 C 362.390625 500.996094 358.453125 500.636719 354.523438 500.648438 C 354.171875 500.652344 354.0625 501.238281 354.4375 501.289062 C 358.34375 501.847656 362.40625 501.667969 366.320312 501.402344 C 366.5625 501.386719 366.570312 501.027344 366.320312 501.023438 "/><path style=" stroke:none;fill-rule:nonzero;fill:#000000;fill-opacity:1;" d="M 448.113281 499.621094 C 451.007812 499.558594 453.886719 499.84375 456.773438 499.839844 C 457.066406 499.839844 457.15625 499.355469 456.84375 499.304688 C 453.988281 498.863281 450.988281 499.035156 448.113281 499.222656 C 447.863281 499.238281 447.855469 499.625 448.113281 499.621094 "/><path style=" stroke:none;fill-rule:nonzero;fill:#000000;fill-opacity:1;" d="M 445.277344 524.976562 C 448.042969 524.515625 450.820312 524.480469 453.617188 524.628906 C 454.023438 524.648438 454.007812 524.050781 453.617188 524.011719 C 450.757812 523.714844 447.988281 524.03125 445.203125 524.71875 C 445.035156 524.757812 445.105469 525.003906 445.277344 524.976562 "/><path style=" stroke:none;fill-rule:nonzero;fill:#000000;fill-opacity:1;" d="M 447.527344 474.015625 C 459.277344 474.324219 471.109375 474.4375 482.847656 473.652344 C 483.152344 473.628906 483.160156 473.175781 482.847656 473.175781 C 471.078125 473.0625 459.292969 473.398438 447.527344 473.460938 C 447.167969 473.464844 447.167969 474.007812 447.527344 474.015625 "/><path style=" stroke:none;fill-rule:nonzero;fill:#000000;fill-opacity:1;" d="M 327.382812 474.851562 C 342.339844 475.042969 357.410156 474.972656 372.351562 474.175781 C 372.847656 474.148438 372.859375 473.394531 372.351562 473.398438 C 357.371094 473.496094 342.351562 473.894531 327.382812 474.535156 C 327.175781 474.542969 327.175781 474.847656 327.382812 474.851562 "/><path style=" stroke:none;fill-rule:nonzero;fill:#000000;fill-opacity:1;" d="M 268.34375 573.125 C 266.628906 569.734375 264.183594 566.667969 260.921875 564.648438 C 260.542969 564.414062 260.074219 564.988281 260.433594 565.285156 C 263.296875 567.679688 265.863281 570.226562 267.832031 573.421875 C 268.035156 573.75 268.511719 573.464844 268.34375 573.125 "/><path style=" stroke:none;fill-rule:nonzero;fill:#000000;fill-opacity:1;" d="M 255.890625 583.183594 C 253.085938 582.359375 249.929688 582.488281 247.046875 582.695312 C 246.53125 582.734375 246.523438 583.53125 247.046875 583.503906 C 249.976562 583.355469 252.941406 583.625 255.859375 583.402344 C 255.980469 583.394531 256.011719 583.21875 255.890625 583.183594 "/><path style=" stroke:none;fill-rule:nonzero;fill:#000000;fill-opacity:1;" d="M 538.53125 571.574219 C 539.796875 570.851562 540.710938 569.363281 541.503906 568.167969 C 542.449219 566.757812 543.222656 565.285156 543.816406 563.699219 C 544.03125 563.121094 543.09375 562.722656 542.8125 563.273438 C 542.082031 564.730469 541.355469 566.191406 540.503906 567.582031 C 539.757812 568.804688 538.664062 569.945312 538.15625 571.285156 C 538.074219 571.503906 538.351562 571.675781 538.53125 571.574219 "/><path style=" stroke:none;fill-rule:nonzero;fill:#000000;fill-opacity:1;" d="M 552.070312 582.371094 C 555.179688 582.484375 558.1875 582.789062 561.230469 583.476562 C 561.765625 583.601562 561.996094 582.777344 561.457031 582.652344 C 558.398438 581.929688 555.214844 581.585938 552.070312 581.800781 C 551.703125 581.828125 551.699219 582.359375 552.070312 582.371094 "/><path style=" stroke:none;fill-rule:nonzero;fill:#000000;fill-opacity:1;" d="M 267.738281 927.761719 C 265.867188 930.230469 263.753906 932.464844 261.335938 934.414062 C 260.816406 934.832031 261.550781 935.550781 262.070312 935.144531 C 264.550781 933.171875 266.675781 930.8125 268.300781 928.089844 C 268.523438 927.714844 267.984375 927.433594 267.738281 927.761719 "/><path style=" stroke:none;fill-rule:nonzero;fill:#000000;fill-opacity:1;" d="M 535.277344 925.605469 C 536.328125 927.183594 537.882812 928.476562 539.226562 929.804688 C 540.742188 931.308594 542.246094 932.792969 543.863281 934.183594 C 544.355469 934.605469 545.035156 933.945312 544.582031 933.464844 C 543.121094 931.914062 541.5625 930.480469 539.992188 929.042969 C 538.59375 927.765625 537.226562 926.261719 535.601562 925.28125 C 535.402344 925.160156 535.140625 925.40625 535.277344 925.605469 "/><path style=" stroke:none;fill-rule:nonzero;fill:#000000;fill-opacity:1;" d="M 293.941406 909.472656 C 337.160156 901.882812 380.417969 899.671875 424.199219 902.1875 C 424.933594 902.234375 424.917969 901.125 424.199219 901.0625 C 380.832031 897.382812 336.398438 900.210938 293.746094 908.765625 C 293.28125 908.859375 293.480469 909.550781 293.941406 909.472656 "/><path style=" stroke:none;fill-rule:nonzero;fill:#000000;fill-opacity:1;" d="M 301.199219 713.441406 C 316.304688 698.183594 330.859375 682.371094 345.582031 666.746094 C 345.925781 666.382812 345.375 665.832031 345.03125 666.199219 C 330.304688 681.828125 315.378906 697.296875 301.039062 713.28125 C 300.945312 713.390625 301.09375 713.542969 301.199219 713.441406 "/><path style=" stroke:none;fill-rule:nonzero;fill:#000000;fill-opacity:1;" d="M 291.945312 768.800781 C 310.726562 750.15625 329.171875 730.015625 344.933594 708.734375 C 345.140625 708.441406 344.664062 708.074219 344.429688 708.347656 C 335.742188 718.46875 327.503906 728.96875 318.707031 739 C 309.90625 749.039062 300.78125 758.769531 291.6875 768.542969 C 291.527344 768.714844 291.78125 768.964844 291.945312 768.800781 "/><path style=" stroke:none;fill-rule:nonzero;fill:#000000;fill-opacity:1;" d="M 366.300781 850.324219 C 386.359375 828.773438 406.355469 807.160156 426.300781 785.5 C 429.164062 782.390625 431.9375 779.207031 434.800781 776.097656 C 435.117188 775.753906 434.601562 775.234375 434.28125 775.582031 C 414.339844 797.246094 394.320312 818.839844 374.496094 840.617188 C 371.652344 843.742188 368.804688 846.867188 365.964844 849.992188 C 365.757812 850.21875 366.089844 850.550781 366.300781 850.324219 "/><path style=" stroke:none;fill-rule:nonzero;fill:#000000;fill-opacity:1;" d="M 463.332031 746.09375 C 479.828125 726.828125 495.84375 707.136719 512.046875 687.621094 C 514.359375 684.835938 516.636719 682.015625 518.953125 679.226562 C 519.332031 678.765625 518.667969 678.097656 518.285156 678.5625 C 502.097656 698.105469 485.90625 717.648438 469.777344 737.246094 C 467.476562 740.046875 465.183594 742.851562 462.917969 745.679688 C 462.683594 745.96875 463.082031 746.382812 463.332031 746.09375 "/><path style=" stroke:none;fill-rule:nonzero;fill:#000000;fill-opacity:1;" d="M 359.886719 538.402344 C 374.253906 541.421875 389.75 541.058594 404.367188 540.984375 C 419.875 540.910156 435.425781 540.40625 450.910156 539.570312 C 452.269531 539.5 452.289062 537.417969 450.910156 537.441406 C 435.730469 537.726562 420.5625 538.433594 405.378906 538.613281 C 390.257812 538.796875 375 537.597656 359.914062 538.214844 C 359.808594 538.21875 359.777344 538.382812 359.886719 538.402344 "/><path style=" stroke:none;fill-rule:nonzero;fill:#000000;fill-opacity:1;" d="M 359.792969 553.457031 C 374.542969 555.460938 389.542969 555.660156 404.410156 555.542969 C 419.832031 555.417969 435.539062 555.417969 450.914062 554.101562 C 452.375 553.980469 452.429688 551.765625 450.914062 551.78125 C 435.738281 551.941406 420.558594 553.359375 405.367188 553.609375 C 390.183594 553.859375 375.054688 553.367188 359.886719 552.769531 C 359.503906 552.753906 359.398438 553.398438 359.792969 553.457031 "/><path style=" stroke:none;fill-rule:nonzero;fill:#000000;fill-opacity:1;" d="M 407.277344 542.355469 C 403.757812 542.300781 401.75 546.292969 403.453125 549.238281 C 405.324219 552.46875 410.472656 553.101562 412.789062 550 C 415.078125 546.9375 413.148438 542.625 409.613281 541.714844 C 405.886719 540.753906 401.84375 543.9375 402.464844 547.867188 C 402.664062 549.113281 404.480469 548.917969 404.800781 547.867188 C 405.351562 546.023438 406.105469 543.984375 408.429688 544.074219 C 410.445312 544.148438 411.84375 546.261719 410.707031 548.082031 C 409.664062 549.746094 407.296875 549.515625 406.03125 548.296875 C 404.375 546.703125 405.171875 544.027344 407.445312 543.605469 C 408.167969 543.46875 407.972656 542.363281 407.277344 542.355469 "/><path style=" stroke:none;fill-rule:nonzero;fill:#000000;fill-opacity:1;" d="M 244.515625 919.707031 C 279.886719 920.425781 315.269531 920.398438 350.648438 920.484375 C 406.941406 920.625 463.234375 920.796875 519.527344 920.820312 C 532.050781 920.824219 546.070312 920.742188 557.914062 920.742188 C 559.511719 920.742188 559.511719 918.257812 557.914062 918.257812 C 523.476562 918.257812 486.898438 918.179688 451.78125 918.265625 C 395.488281 918.40625 339.195312 918.542969 282.902344 918.746094 C 270.101562 918.796875 257.3125 919.035156 244.515625 919.292969 C 244.25 919.300781 244.25 919.703125 244.515625 919.707031 "/><path style=" stroke:none;fill-rule:nonzero;fill:#000000;fill-opacity:1;" d="M 263.8125 580.484375 C 295.480469 581.203125 327.164062 581.175781 358.847656 581.265625 C 409.304688 581.402344 459.761719 581.578125 510.214844 581.601562 C 521.476562 581.605469 534.257812 581.519531 544.824219 581.519531 C 546.421875 581.519531 546.429688 579.042969 544.824219 579.042969 C 514.109375 579.042969 481.210938 578.960938 449.792969 579.046875 C 399.335938 579.183594 348.878906 579.324219 298.421875 579.527344 C 286.878906 579.574219 275.351562 579.8125 263.8125 580.070312 C 263.546875 580.078125 263.546875 580.480469 263.8125 580.484375 "/><path style=" stroke:none;fill-rule:nonzero;fill:#000000;fill-opacity:1;" d="M 328.28125 464.140625 C 333.386719 464.753906 338.625 464.621094 343.765625 464.71875 C 356.164062 464.953125 368.574219 464.953125 380.976562 464.953125 C 409.019531 464.949219 437.0625 464.925781 465.101562 464.84375 C 471.292969 464.820312 479.203125 464.667969 484.601562 464.65625 C 486.339844 464.652344 486.34375 461.949219 484.601562 461.953125 C 440.042969 462.058594 393.132812 461.574219 347.773438 462.476562 C 341.320312 462.605469 334.695312 462.425781 328.28125 463.21875 C 327.6875 463.296875 327.683594 464.074219 328.28125 464.140625 "/><path style=" stroke:none;fill-rule:nonzero;fill:#000000;fill-opacity:1;" d="M 329.445312 435.339844 C 334.597656 435.960938 339.882812 435.816406 345.066406 435.917969 C 357.378906 436.15625 369.703125 436.152344 382.019531 436.148438 C 409.890625 436.148438 437.765625 436.121094 465.640625 436.035156 C 471.644531 436.019531 479.375 435.867188 484.601562 435.855469 C 486.339844 435.847656 486.34375 433.148438 484.601562 433.152344 C 440.246094 433.257812 393.554688 432.722656 348.40625 433.683594 C 342.128906 433.820312 335.683594 433.636719 329.445312 434.417969 C 328.855469 434.496094 328.851562 435.269531 329.445312 435.339844 "/><path style=" stroke:none;fill-rule:nonzero;fill:#000000;fill-opacity:1;" d="M 319.304688 466.894531 C 319.496094 468.902344 320.078125 470.855469 320.371094 472.847656 C 320.691406 475.019531 320.757812 477.230469 321.195312 479.382812 C 321.4375 480.574219 323.476562 480.328125 323.351562 479.085938 C 322.9375 475.074219 322.089844 470.238281 320.164062 466.660156 C 319.957031 466.277344 319.261719 466.429688 319.304688 466.894531 "/><path style=" stroke:none;fill-rule:nonzero;fill:#000000;fill-opacity:1;" d="M 321.734375 421.074219 C 320.457031 424.277344 318.203125 428.015625 318.304688 431.546875 C 318.335938 432.554688 319.652344 432.65625 319.992188 431.773438 C 320.628906 430.128906 320.726562 428.230469 321.125 426.507812 C 321.53125 424.753906 322.003906 423.019531 322.40625 421.261719 C 322.507812 420.8125 321.894531 420.664062 321.734375 421.074219 "/><path style=" stroke:none;fill-rule:nonzero;fill:#000000;fill-opacity:1;" d="M 319.445312 438.851562 C 319.042969 442.308594 318.890625 445.761719 318.78125 449.238281 C 318.6875 452.261719 318.1875 455.441406 318.953125 458.375 C 319.167969 459.207031 320.421875 459.207031 320.640625 458.375 C 321.402344 455.460938 320.90625 452.238281 320.8125 449.238281 C 320.703125 445.765625 320.550781 442.308594 320.148438 438.851562 C 320.09375 438.402344 319.5 438.402344 319.445312 438.851562 "/><path style=" stroke:none;fill-rule:nonzero;fill:#000000;fill-opacity:1;" d="M 494.15625 438.707031 C 493.273438 441.632812 493.480469 444.875 493.488281 447.914062 C 493.5 451.429688 493.496094 454.984375 493.777344 458.488281 C 493.894531 459.988281 496.050781 460.019531 496.128906 458.488281 C 496.3125 454.984375 496.21875 451.425781 496.121094 447.914062 C 496.035156 444.855469 496.171875 441.628906 495.199219 438.707031 C 495.03125 438.203125 494.3125 438.183594 494.15625 438.707031 "/><path style=" stroke:none;fill-rule:nonzero;fill:#000000;fill-opacity:1;" d="M 493.558594 422.261719 C 493.3125 424.285156 493.738281 426.371094 494.253906 428.324219 C 494.550781 429.449219 494.8125 430.675781 495.582031 431.582031 C 495.996094 432.070312 496.898438 431.679688 496.859375 431.054688 C 496.789062 430.003906 496.328125 429.050781 496.007812 428.058594 C 495.402344 426.195312 494.878906 424.234375 495.023438 422.261719 C 495.09375 421.308594 493.671875 421.347656 493.558594 422.261719 "/><path style=" stroke:none;fill-rule:nonzero;fill:#000000;fill-opacity:1;" d="M 496.058594 466.378906 C 495.480469 468.441406 494.851562 470.445312 494.117188 472.460938 C 493.445312 474.316406 492.640625 476.289062 492.75 478.289062 C 492.804688 479.308594 494.207031 479.515625 494.53125 478.53125 C 495.183594 476.539062 495.375 474.347656 495.917969 472.296875 C 496.425781 470.394531 496.792969 468.449219 496.773438 466.476562 C 496.773438 466.066406 496.171875 465.972656 496.058594 466.378906 "/><path style=" stroke:none;fill-rule:nonzero;fill:#000000;fill-opacity:1;" d="M 272.929688 673.242188 C 272.933594 670.285156 273.015625 667.355469 273.1875 664.402344 C 273.226562 663.824219 272.34375 663.832031 272.292969 664.402344 C 271.6875 671.589844 271.875 679.214844 271.824219 686.523438 C 271.707031 704.050781 271.582031 721.582031 271.460938 739.117188 C 271.179688 778.839844 270.890625 818.5625 270.726562 858.285156 C 270.691406 867.4375 270.660156 876.597656 270.617188 885.753906 C 270.609375 887.105469 272.707031 887.105469 272.714844 885.753906 C 272.84375 859.71875 273.039062 833.683594 273.109375 807.640625 C 273.214844 767.589844 273.328125 727.539062 273.4375 687.488281 C 273.457031 681.433594 273.417969 675.378906 273.378906 669.316406 C 273.371094 668.179688 273.703125 666.214844 273.242188 665.136719 C 273.160156 664.949219 273.285156 664.507812 273.1875 664.417969 C 272.039062 663.335938 272.558594 667.050781 272.5625 667.121094 C 272.738281 669.160156 272.816406 671.195312 272.898438 673.242188 C 272.898438 673.261719 272.929688 673.261719 272.929688 673.242188 "/><path style=" stroke:none;fill-rule:nonzero;fill:#000000;fill-opacity:1;" d="M 538.121094 598.25 C 536.246094 618.234375 537.007812 638.707031 536.679688 658.757812 C 536.148438 691.113281 535.421875 723.5 535.425781 755.859375 C 535.425781 763.203125 535.558594 770.976562 535.457031 778.132812 C 535.445312 778.953125 536.71875 778.953125 536.730469 778.132812 C 537.011719 758.222656 537.742188 737.726562 538.054688 717.625 C 538.566406 685.265625 539.171875 652.894531 539.320312 620.523438 C 539.351562 613.121094 539.652344 605.640625 539.171875 598.25 C 539.128906 597.566406 538.183594 597.578125 538.121094 598.25 "/><path style=" stroke:none;fill-rule:nonzero;fill:#000000;fill-opacity:1;" d="M 413.644531 589.898438 C 375.9375 589.132812 338.203125 589.21875 300.496094 589.464844 C 295.167969 589.496094 289.828125 589.640625 284.507812 589.636719 C 284.222656 589.636719 284.222656 590.082031 284.507812 590.082031 C 322.21875 590.105469 359.941406 590.839844 397.660156 590.265625 C 402.984375 590.179688 408.3125 590.097656 413.644531 589.992188 C 413.703125 589.992188 413.703125 589.898438 413.644531 589.898438 "/><path style=" stroke:none;fill-rule:nonzero;fill:#000000;fill-opacity:1;" d="M 500.222656 464.289062 C 501.460938 464.34375 502.730469 464.410156 503.953125 464.613281 C 505.007812 464.785156 506.070312 465.0625 507.148438 465.035156 C 507.921875 465.019531 508.203125 463.992188 507.539062 463.585938 C 505.414062 462.28125 502.378906 462.550781 500.066406 463.136719 C 499.40625 463.304688 499.574219 464.261719 500.222656 464.289062 "/><path style=" stroke:none;fill-rule:nonzero;fill:#000000;fill-opacity:1;" d="M 500.210938 434.367188 C 502.648438 434.367188 505.710938 434.046875 507.949219 433.066406 C 508.914062 432.648438 508.355469 431.21875 507.445312 431.199219 C 505.078125 431.152344 502.183594 432.039062 500.015625 432.933594 C 499.304688 433.226562 499.320312 434.367188 500.210938 434.367188 "/><path style=" stroke:none;fill-rule:nonzero;fill:#000000;fill-opacity:1;" d="M 314.792969 435.496094 C 312.859375 434.839844 310.257812 434.214844 308.21875 434.566406 C 307.308594 434.722656 307.503906 435.964844 308.21875 436.21875 C 310.140625 436.90625 312.804688 436.683594 314.792969 436.382812 C 315.277344 436.308594 315.175781 435.628906 314.792969 435.496094 "/><path style=" stroke:none;fill-rule:nonzero;fill:#000000;fill-opacity:1;" d="M 315.003906 463.5625 C 312.375 463.308594 309.4375 463.304688 306.878906 464.023438 C 306.128906 464.234375 306.238281 465.488281 307.070312 465.429688 C 309.714844 465.230469 312.355469 464.722656 315.003906 464.453125 C 315.570312 464.394531 315.574219 463.617188 315.003906 463.5625 "/><path style=" stroke:none;fill-rule:nonzero;fill:#000000;fill-opacity:1;" d="M 450.332031 750.375 C 450.640625 727.496094 450.8125 704.625 450.867188 681.742188 C 450.890625 671.0625 451.222656 660.296875 450.726562 649.625 C 450.628906 647.476562 450.648438 646.671875 448.398438 646.226562 C 443.191406 645.195312 436.972656 645.96875 431.707031 645.925781 C 410.902344 645.753906 390.09375 645.875 369.289062 645.945312 C 367.363281 645.953125 367.359375 648.945312 369.289062 648.933594 C 387.472656 648.832031 405.652344 648.742188 423.839844 648.742188 C 430.738281 648.742188 437.632812 648.691406 444.527344 648.792969 C 445.832031 648.8125 447.695312 649.207031 448.960938 648.9375 C 447.863281 649.171875 448.203125 647.476562 448.003906 648.199219 C 447.886719 648.609375 448.117188 649.203125 448.078125 649.625 C 447.726562 653.363281 448.265625 657.425781 448.3125 661.183594 C 448.398438 667.558594 448.445312 673.929688 448.484375 680.304688 C 448.578125 694.933594 448.5625 709.554688 448.683594 724.179688 C 448.75 732.914062 448.816406 741.644531 448.871094 750.375 C 448.878906 751.316406 450.320312 751.316406 450.332031 750.375 "/><path style=" stroke:none;fill-rule:nonzero;fill:#000000;fill-opacity:1;" d="M 358.285156 654.925781 C 357.976562 678.6875 357.800781 702.453125 357.75 726.222656 C 357.726562 737.425781 357.449219 748.691406 357.898438 759.894531 C 357.980469 762 357.890625 763.011719 360.078125 763.507812 C 365.140625 764.644531 371.414062 763.777344 376.5625 763.820312 C 398.640625 764.011719 420.726562 763.878906 442.808594 763.804688 C 444.730469 763.796875 444.734375 760.804688 442.808594 760.816406 C 423.703125 760.921875 404.601562 761.011719 385.496094 761.011719 C 378.328125 761.011719 371.160156 761.066406 363.992188 760.953125 C 362.820312 760.929688 360.808594 760.496094 359.664062 760.804688 C 361.046875 760.425781 360.398438 762.296875 360.621094 761.390625 C 360.726562 760.941406 360.507812 760.355469 360.542969 759.894531 C 361.292969 749.484375 360.199219 738.574219 360.132812 728.136719 C 360.03125 712.746094 360.046875 697.355469 359.933594 681.964844 C 359.863281 672.953125 359.800781 663.9375 359.75 654.925781 C 359.746094 653.984375 358.296875 653.984375 358.285156 654.925781 "/><path style=" stroke:none;fill-rule:nonzero;fill:#000000;fill-opacity:1;" d="M 246.0625 580.765625 C 244.300781 608.890625 244.53125 637.21875 244.191406 665.386719 C 243.835938 694.421875 243.613281 723.457031 243.507812 752.492188 C 243.34375 798.191406 243.246094 843.902344 243.402344 889.605469 C 243.429688 898.339844 243.5625 907.078125 243.597656 915.804688 C 243.613281 919.199219 248.894531 919.207031 248.878906 915.804688 C 248.769531 890.546875 248.851562 865.273438 248.800781 840.011719 C 248.691406 785.359375 248.785156 730.707031 248.855469 676.058594 C 248.894531 644.328125 249.824219 612.476562 248.796875 580.765625 C 248.742188 578.996094 246.171875 579.015625 246.0625 580.765625 "/><path style=" stroke:none;fill-rule:nonzero;fill:#000000;fill-opacity:1;" d="M 560.199219 583.101562 C 560 610.757812 560.601562 638.425781 560.46875 666.085938 C 560.328125 695.035156 560.023438 723.984375 559.703125 752.929688 C 559.195312 798.785156 558.84375 844.640625 558.0625 890.5 C 557.910156 899.285156 557.773438 908.074219 557.5625 916.859375 C 557.46875 920.953125 563.828125 920.953125 563.925781 916.859375 C 564.53125 891.625 565.0625 866.390625 565.472656 841.152344 C 566.359375 786.550781 566.664062 731.960938 565.667969 677.351562 C 565.09375 645.972656 564.90625 614.421875 562.746094 583.101562 C 562.632812 581.480469 560.210938 581.445312 560.199219 583.101562 "/><path style=" stroke:none;fill-rule:nonzero;fill:#000000;fill-opacity:1;" d="M 262.128906 934.742188 C 260.089844 932.066406 258.003906 929.476562 255.839844 926.90625 C 254.15625 924.910156 252.488281 922.902344 250.851562 920.871094 C 249.734375 919.484375 248.445312 916.84375 246.808594 916.054688 C 245.140625 915.246094 243.679688 916.566406 243.910156 918.277344 C 244.136719 919.960938 246.300781 921.644531 247.40625 922.808594 C 249.253906 924.765625 251.164062 926.664062 253.082031 928.546875 C 255.617188 931.035156 258.1875 933.40625 260.929688 935.664062 C 261.539062 936.164062 262.695312 935.484375 262.128906 934.742188 "/><g clip-rule="nonzero" clip-path="url(#0847dad673)"><path style=" stroke:none;fill-rule:nonzero;fill:#000000;fill-opacity:1;" d="M 261.148438 936.292969 C 267.386719 937.191406 273.816406 937.371094 280.117188 937.554688 C 296.6875 938.042969 313.257812 938.4375 329.832031 938.679688 C 376.640625 939.355469 423.480469 939.449219 470.300781 939.222656 C 494.46875 939.109375 518.640625 938.925781 542.804688 938.464844 C 547.34375 938.378906 547.359375 931.324219 542.804688 931.40625 C 497.585938 932.230469 452.339844 932.261719 407.117188 932.304688 C 366.667969 932.34375 326.226562 932.316406 285.777344 932.890625 C 277.71875 933.003906 269.464844 932.898438 261.46875 933.914062 C 260.269531 934.070312 259.664062 936.078125 261.148438 936.292969 "/></g><path style=" stroke:none;fill-rule:nonzero;fill:#000000;fill-opacity:1;" d="M 561.195312 917.699219 C 557.402344 920.222656 553.71875 922.882812 550.035156 925.570312 C 546.75 927.960938 542.679688 930.128906 540.386719 933.523438 C 538.667969 936.074219 541.914062 938.398438 544.21875 937.351562 C 547.828125 935.707031 550.773438 931.863281 553.636719 929.152344 C 556.808594 926.144531 559.9375 923.128906 562.929688 919.945312 C 564 918.804688 562.601562 916.765625 561.195312 917.699219 "/><path style=" stroke:none;fill-rule:nonzero;fill:#000000;fill-opacity:1;" d="M 260.929688 563.25 C 258.519531 565.648438 256.28125 568.136719 254.066406 570.71875 C 252.476562 572.570312 250.898438 574.429688 249.34375 576.304688 C 248.144531 577.746094 246.375 579.230469 246.210938 581.160156 C 246.066406 582.800781 247.953125 583.414062 249.179688 582.863281 C 250.710938 582.171875 251.707031 579.757812 252.628906 578.402344 C 254.019531 576.375 255.414062 574.359375 256.8125 572.339844 C 258.667969 569.65625 260.449219 566.96875 262.128906 564.175781 C 262.578125 563.429688 261.542969 562.640625 260.929688 563.25 "/><path style=" stroke:none;fill-rule:nonzero;fill:#000000;fill-opacity:1;" d="M 261.46875 565 C 267.820312 565.804688 274.382812 565.871094 280.789062 565.957031 C 297.324219 566.175781 313.851562 566.414062 330.390625 566.5 C 377.023438 566.742188 423.664062 566.625 470.300781 566.808594 C 494.46875 566.90625 518.640625 567.070312 542.804688 567.511719 C 547.351562 567.59375 547.351562 560.535156 542.804688 560.453125 C 497.359375 559.585938 451.898438 559.578125 406.445312 559.695312 C 365.964844 559.792969 325.503906 560.121094 285.03125 561.222656 C 277.105469 561.441406 269.003906 561.496094 261.148438 562.628906 C 259.675781 562.835938 260.253906 564.84375 261.46875 565 "/><path style=" stroke:none;fill-rule:nonzero;fill:#000000;fill-opacity:1;" d="M 562.929688 581.339844 C 559.753906 577.9375 556.714844 574.398438 553.664062 570.878906 C 550.96875 567.769531 548.042969 563.261719 544.21875 561.566406 C 541.867188 560.519531 538.75 562.796875 540.386719 565.394531 C 542.742188 569.128906 547.328125 571.957031 550.601562 574.925781 C 554.007812 578.007812 557.410156 580.972656 561.195312 583.589844 C 562.578125 584.542969 564 582.488281 562.929688 581.339844 "/><path style=" stroke:none;fill-rule:nonzero;fill:#000000;fill-opacity:1;" d="M 260.054688 617.070312 C 257.582031 654.953125 258.09375 693.148438 257.570312 731.109375 C 257.078125 766.804688 256.652344 802.503906 256.457031 838.203125 C 256.339844 860.445312 256.1875 882.648438 256.828125 904.878906 C 256.898438 907.457031 260.738281 907.457031 260.835938 904.878906 C 262.257812 866.902344 261.921875 828.847656 261.878906 790.839844 C 261.84375 755.140625 261.761719 719.441406 261.585938 683.742188 C 261.476562 661.519531 261.683594 639.261719 260.433594 617.070312 C 260.417969 616.824219 260.070312 616.824219 260.054688 617.070312 "/><path style=" stroke:none;fill-rule:nonzero;fill:#000000;fill-opacity:1;" d="M 549.066406 618.132812 C 546.597656 655.703125 547.109375 693.589844 546.585938 731.226562 C 546.097656 766.425781 545.671875 801.625 545.476562 836.824219 C 545.359375 858.953125 545.203125 881.039062 545.84375 903.15625 C 545.917969 905.734375 549.753906 905.734375 549.855469 903.15625 C 551.277344 865.492188 550.9375 827.75 550.898438 790.058594 C 550.855469 754.859375 550.78125 719.660156 550.605469 684.460938 C 550.5 662.355469 550.710938 640.210938 549.449219 618.132812 C 549.4375 617.886719 549.082031 617.890625 549.066406 618.132812 "/><path style=" stroke:none;fill-rule:nonzero;fill:#000000;fill-opacity:1;" d="M 255.675781 904.257812 C 257.257812 907.191406 258.867188 910.046875 261.027344 912.59375 C 261.410156 913.046875 262.136719 913.183594 262.683594 913.035156 C 280.0625 908.167969 296.941406 902.21875 314.648438 898.445312 C 332.878906 894.5625 351.390625 891.847656 369.972656 890.34375 C 407.167969 887.335938 444.90625 889.027344 481.527344 896.351562 C 501.179688 900.28125 520.542969 905.960938 539.363281 912.828125 C 541.773438 913.703125 543.507812 909.691406 541.128906 908.640625 C 507.429688 893.8125 470.523438 886.894531 433.925781 884.351562 C 396.140625 881.726562 357.726562 884.101562 320.644531 891.894531 C 300.773438 896.066406 279.695312 900.988281 261.371094 909.917969 C 262.0625 910.007812 262.75 910.097656 263.4375 910.1875 C 261.035156 908.214844 258.710938 906.085938 256.941406 903.519531 C 256.410156 902.75 255.222656 903.421875 255.675781 904.257812 "/><path style=" stroke:none;fill-rule:nonzero;fill:#000000;fill-opacity:1;" d="M 549.023438 903.695312 C 547.984375 903.824219 547.167969 904.386719 546.28125 904.910156 C 545.261719 905.515625 544.203125 906.042969 543.175781 906.636719 C 541.355469 907.679688 538.472656 909.261719 539.097656 911.746094 C 539.222656 912.246094 539.683594 912.753906 540.207031 912.859375 C 542.511719 913.308594 544.421875 910.757812 545.929688 909.316406 C 547.3125 908 549.519531 906.390625 549.660156 904.332031 C 549.679688 904.015625 549.351562 903.660156 549.023438 903.695312 "/><path style=" stroke:none;fill-rule:nonzero;fill:#000000;fill-opacity:1;" d="M 359.160156 528.347656 C 358.242188 534.300781 358.511719 540.570312 358.546875 546.582031 C 358.582031 551.933594 357.683594 559.105469 359.972656 564.082031 C 361.019531 566.34375 363.875 564.847656 364.121094 562.957031 C 364.828125 557.597656 363.308594 551.332031 363.066406 545.921875 C 362.8125 540.222656 362.910156 534.523438 362.71875 528.828125 C 362.65625 526.890625 359.484375 526.238281 359.160156 528.347656 "/><path style=" stroke:none;fill-rule:nonzero;fill:#000000;fill-opacity:1;" d="M 451 527.789062 C 450.957031 540.011719 448.617188 552.875 450.199219 565.015625 C 450.5 567.34375 453.851562 567.503906 453.953125 565.015625 C 454.449219 552.785156 454.109375 539.980469 452.972656 527.789062 C 452.859375 526.550781 451.003906 526.496094 451 527.789062 "/><path style=" stroke:none;fill-rule:nonzero;fill:#000000;fill-opacity:1;" d="M 359.160156 481.496094 C 358.746094 483.976562 359.097656 486.667969 359.152344 489.175781 C 359.199219 491.261719 358.546875 495.382812 360.320312 496.898438 C 361.1875 497.636719 362.632812 497.859375 363.46875 496.898438 C 365.179688 494.933594 364.023438 491.507812 363.730469 489.175781 C 363.414062 486.707031 363.425781 483.871094 362.65625 481.496094 C 362.152344 479.941406 359.472656 479.605469 359.160156 481.496094 "/><path style=" stroke:none;fill-rule:nonzero;fill:#000000;fill-opacity:1;" d="M 451 481.253906 C 450.832031 483.632812 450.5625 486.015625 450.3125 488.390625 C 450.082031 490.632812 449.621094 492.996094 450.265625 495.1875 C 450.746094 496.832031 453.574219 497.113281 453.882812 495.1875 C 454.265625 492.832031 453.800781 490.355469 453.699219 487.96875 C 453.601562 485.597656 453.398438 483.324219 452.9375 480.992188 C 452.710938 479.84375 451.074219 480.203125 451 481.253906 "/><path style=" stroke:none;fill-rule:nonzero;fill:#000000;fill-opacity:1;" d="M 346.847656 509.191406 C 346.585938 511.578125 346.417969 514.023438 346.628906 516.421875 C 346.753906 517.789062 348.75 517.542969 348.507812 516.167969 C 348.101562 513.886719 348.070312 511.503906 348.121094 509.191406 C 348.140625 508.359375 346.933594 508.398438 346.847656 509.191406 "/><path style=" stroke:none;fill-rule:nonzero;fill:#000000;fill-opacity:1;" d="M 463.214844 507.105469 C 462.8125 510.195312 462.425781 513.304688 462.636719 516.417969 C 462.773438 518.375 465.5625 518.378906 465.691406 516.417969 C 465.90625 513.304688 465.519531 510.195312 465.125 507.105469 C 464.964844 505.882812 463.371094 505.882812 463.214844 507.105469 "/><path style=" stroke:none;fill-rule:nonzero;fill:#000000;fill-opacity:1;" d="M 347.417969 517.773438 C 351.039062 519.460938 355.738281 519.117188 359.644531 519.238281 C 368.949219 519.515625 378.234375 519.570312 387.539062 519.539062 C 407.90625 519.476562 428.3125 519.417969 448.671875 518.792969 C 453.398438 518.648438 458.132812 518.425781 462.863281 518.355469 C 465.644531 518.316406 465.652344 513.992188 462.863281 514.03125 C 429.640625 514.519531 396.382812 514.066406 363.171875 515.515625 C 358.007812 515.738281 352.480469 515.503906 347.515625 517.015625 C 347.203125 517.113281 347.078125 517.613281 347.417969 517.773438 "/><path style=" stroke:none;fill-rule:nonzero;fill:#000000;fill-opacity:1;" d="M 347.609375 509.160156 C 371.554688 511.65625 396.128906 510.507812 420.152344 510.019531 C 430.285156 509.8125 440.410156 509.542969 450.535156 509.203125 C 454.332031 509.082031 460.15625 508.457031 462.996094 508.40625 C 465 508.375 465.003906 505.253906 462.996094 505.289062 C 424.6875 505.960938 385.746094 503.242188 347.609375 508.335938 C 347.089844 508.402344 347.074219 509.105469 347.609375 509.160156 "/><path style=" stroke:none;fill-rule:nonzero;fill:#000000;fill-opacity:1;" d="M 351.847656 508.90625 C 354.972656 506.179688 356.609375 501.757812 360.335938 499.742188 C 364.410156 497.542969 369.929688 497.730469 374.457031 497.417969 C 384.824219 496.703125 395.230469 496.453125 405.621094 496.335938 C 415.945312 496.222656 426.292969 496.355469 436.609375 496.667969 C 441.464844 496.8125 446.695312 496.625 451.417969 497.859375 C 456.171875 499.101562 457.90625 503.167969 460.265625 507.164062 C 460.832031 508.128906 462.382812 507.191406 461.746094 506.300781 C 459.402344 503.015625 457.890625 498.28125 454.636719 495.722656 C 451.269531 493.070312 445.863281 493.066406 441.753906 492.613281 C 429.792969 491.285156 417.65625 490.769531 405.621094 490.875 C 393.679688 490.976562 381.542969 491.332031 369.671875 492.671875 C 365.324219 493.167969 360.269531 493.550781 356.789062 496.488281 C 353.5625 499.207031 351.390625 504.042969 350.253906 507.980469 C 349.976562 508.941406 351.160156 509.507812 351.847656 508.90625 "/><path style=" stroke:none;fill-rule:nonzero;fill:#000000;fill-opacity:1;" d="M 460.332031 515.667969 C 457.148438 518.421875 455.304688 522.574219 451.492188 524.613281 C 447.4375 526.777344 442.296875 526.746094 437.816406 527.082031 C 427.589844 527.847656 417.316406 528.121094 407.0625 528.234375 C 396.644531 528.351562 386.207031 528.21875 375.796875 527.867188 C 371.160156 527.714844 366.210938 527.820312 361.691406 526.691406 C 356.613281 525.425781 354.464844 521.6875 351.917969 517.410156 C 351.34375 516.449219 349.792969 517.390625 350.433594 518.277344 C 352.871094 521.648438 354.753906 526.453125 358.257812 528.933594 C 361.59375 531.296875 366.605469 531.429688 370.539062 531.894531 C 382.613281 533.308594 394.90625 533.84375 407.0625 533.695312 C 418.828125 533.550781 430.792969 533.222656 442.484375 531.796875 C 446.660156 531.285156 451.296875 530.730469 454.75 528.109375 C 458.246094 525.460938 460.722656 520.703125 461.925781 516.59375 C 462.207031 515.628906 461.019531 515.074219 460.332031 515.667969 "/><path style=" stroke:none;fill-rule:nonzero;fill:#000000;fill-opacity:1;" d="M 318.941406 480.832031 C 324.449219 482.042969 330.398438 481.808594 336.007812 482.003906 C 350.003906 482.488281 364.039062 482.5 378.042969 482.503906 C 409.480469 482.511719 440.921875 482.476562 472.363281 482.316406 C 477.605469 482.292969 482.855469 482.265625 488.097656 482.238281 C 489.726562 482.230469 491.394531 482.335938 493.007812 482.09375 C 493.378906 482.035156 493.753906 481.980469 494.121094 481.925781 C 495.488281 481.726562 494.453125 481.957031 493.820312 481.960938 C 497.300781 481.945312 497.308594 476.539062 493.820312 476.554688 C 495.480469 476.546875 494.558594 476.640625 493.394531 476.488281 C 492.050781 476.316406 490.75 476.308594 489.394531 476.3125 C 485.265625 476.328125 481.132812 476.335938 477.003906 476.351562 C 462.992188 476.390625 448.980469 476.429688 434.972656 476.472656 C 403.5625 476.5625 372.039062 476.375 340.644531 477.558594 C 333.566406 477.824219 325.890625 477.472656 318.941406 479.054688 C 318.066406 479.253906 318.058594 480.640625 318.941406 480.832031 "/><g clip-rule="nonzero" clip-path="url(#9c7866d414)"><path style=" stroke:none;fill-rule:nonzero;fill:#000000;fill-opacity:1;" d="M 318.941406 422.917969 C 324.449219 424.128906 330.398438 423.894531 336.007812 424.085938 C 350.003906 424.574219 364.039062 424.589844 378.042969 424.589844 C 409.480469 424.597656 440.921875 424.558594 472.363281 424.40625 C 477.605469 424.378906 482.855469 424.351562 488.097656 424.324219 C 489.726562 424.316406 491.394531 424.421875 493.007812 424.179688 C 493.378906 424.125 493.753906 424.0625 494.121094 424.011719 C 495.488281 423.808594 494.453125 424.039062 493.820312 424.042969 C 497.300781 424.03125 497.308594 418.628906 493.820312 418.640625 C 495.480469 418.636719 494.558594 418.722656 493.394531 418.570312 C 492.050781 418.402344 490.75 418.398438 489.394531 418.402344 C 485.265625 418.414062 481.132812 418.425781 477.003906 418.4375 C 462.992188 418.476562 448.980469 418.515625 434.972656 418.554688 C 403.5625 418.648438 372.039062 418.460938 340.644531 419.640625 C 333.566406 419.90625 325.890625 419.558594 318.941406 421.140625 C 318.066406 421.335938 318.058594 422.722656 318.941406 422.917969 "/></g><path style=" stroke:none;fill-rule:nonzero;fill:#000000;fill-opacity:1;" d="M 306.894531 434.714844 C 305.878906 443.644531 305.242188 453.664062 305.808594 462.636719 C 305.996094 465.578125 310.203125 465.585938 310.390625 462.636719 C 310.960938 453.664062 310.328125 443.644531 309.3125 434.714844 C 309.132812 433.164062 307.070312 433.160156 306.894531 434.714844 "/><path style=" stroke:none;fill-rule:nonzero;fill:#000000;fill-opacity:1;" d="M 309.699219 435.679688 C 312.175781 434.003906 314.28125 431.785156 316.480469 429.773438 C 317.917969 428.453125 319.394531 427.140625 320.726562 425.710938 C 321.757812 424.609375 321.78125 423.84375 322.1875 422.816406 C 322.777344 421.316406 320.910156 420.429688 319.757812 420.949219 C 320.292969 420.707031 319.214844 421.117188 319.667969 420.996094 C 318.492188 421.316406 317.921875 421.6875 317.089844 422.578125 C 315.777344 423.988281 314.53125 425.457031 313.300781 426.9375 C 311.4375 429.164062 309.34375 431.320312 307.828125 433.808594 C 307.136719 434.9375 308.546875 436.453125 309.699219 435.679688 "/><path style=" stroke:none;fill-rule:nonzero;fill:#000000;fill-opacity:1;" d="M 305.867188 463.3125 C 307 465.550781 308.410156 467.460938 309.910156 469.472656 C 312.480469 472.929688 314.871094 476.695312 317.742188 479.90625 C 320.023438 482.457031 323.46875 478.785156 321.429688 476.21875 C 318.714844 472.800781 315.320312 469.777344 312.289062 466.632812 C 310.648438 464.933594 309.070312 463.398438 307.167969 462.007812 C 306.339844 461.398438 305.476562 462.546875 305.867188 463.3125 "/><path style=" stroke:none;fill-rule:nonzero;fill:#000000;fill-opacity:1;" d="M 506.292969 432.644531 C 505.269531 442.265625 504.582031 452.980469 505.210938 462.636719 C 505.402344 465.578125 509.601562 465.585938 509.789062 462.636719 C 510.417969 452.980469 509.730469 442.265625 508.710938 432.644531 C 508.546875 431.09375 506.460938 431.089844 506.292969 432.644531 "/><g clip-rule="nonzero" clip-path="url(#69cefd077d)"><path style=" stroke:none;fill-rule:nonzero;fill:#000000;fill-opacity:1;" d="M 507.773438 430.703125 C 506 428.300781 503.714844 426.285156 501.609375 424.171875 C 500.230469 422.789062 498.851562 421.386719 497.375 420.097656 C 496.210938 419.085938 495.539062 419.101562 494.417969 418.714844 C 492.953125 418.207031 491.953125 419.945312 492.546875 421.144531 C 492.386719 420.8125 492.609375 421.34375 492.738281 421.648438 C 493.101562 422.484375 493.441406 423.003906 494.109375 423.609375 C 495.59375 424.960938 497.234375 426.160156 498.816406 427.378906 C 501.125 429.148438 503.359375 431.164062 505.902344 432.574219 C 507.007812 433.1875 508.632812 431.867188 507.773438 430.703125 "/></g><path style=" stroke:none;fill-rule:nonzero;fill:#000000;fill-opacity:1;" d="M 508.433594 462.007812 C 506.535156 463.398438 504.953125 464.933594 503.316406 466.632812 C 500.285156 469.777344 496.890625 472.800781 494.175781 476.21875 C 492.132812 478.785156 495.582031 482.457031 497.863281 479.90625 C 500.734375 476.695312 503.125 472.929688 505.695312 469.472656 C 507.195312 467.460938 508.605469 465.550781 509.738281 463.3125 C 510.128906 462.546875 509.265625 461.398438 508.433594 462.007812 "/><path style=" stroke:none;fill-rule:nonzero;fill:#000000;fill-opacity:1;" d="M 343.984375 631.257812 C 343.429688 663.445312 343.097656 695.628906 342.96875 727.820312 C 342.902344 743.398438 342.625 759.015625 343.066406 774.597656 C 343.167969 778.023438 343.1875 780.410156 347.214844 780.808594 C 354.996094 781.578125 363.027344 781.199219 370.828125 781.273438 C 400.613281 781.570312 430.402344 781.382812 460.179688 781.296875 C 464.03125 781.285156 464.039062 775.292969 460.179688 775.320312 C 434.160156 775.476562 408.136719 775.621094 382.117188 775.625 C 372.234375 775.628906 362.34375 775.730469 352.460938 775.59375 C 351.492188 775.582031 346.585938 775.332031 346.546875 775.433594 C 346.539062 775.457031 348.691406 777.078125 348.460938 777.089844 C 349.15625 777.058594 348.121094 777.945312 348.484375 777.152344 C 348.667969 776.75 348.402344 775.6875 348.382812 775.238281 C 346.722656 739.78125 347.746094 704.144531 347.324219 668.65625 C 347.179688 656.191406 347.035156 643.726562 346.910156 631.257812 C 346.890625 629.375 344.015625 629.375 343.984375 631.257812 "/><path style=" stroke:none;fill-rule:nonzero;fill:#000000;fill-opacity:1;" d="M 463.578125 778.5 C 464.136719 746.3125 464.464844 714.128906 464.59375 681.9375 C 464.660156 666.355469 464.9375 650.734375 464.496094 635.160156 C 464.398438 631.730469 464.375 629.347656 460.347656 628.949219 C 452.570312 628.175781 444.535156 628.558594 436.730469 628.480469 C 406.953125 628.183594 377.164062 628.375 347.378906 628.460938 C 343.535156 628.472656 343.527344 634.460938 347.378906 634.4375 C 373.402344 634.28125 399.421875 634.132812 425.445312 634.128906 C 435.328125 634.125 445.214844 634.027344 455.101562 634.15625 C 456.074219 634.171875 460.980469 634.421875 461.019531 634.320312 C 461.023438 634.300781 458.871094 632.675781 459.105469 632.664062 C 458.402344 632.699219 459.441406 631.808594 459.074219 632.605469 C 458.894531 633.003906 459.164062 634.070312 459.183594 634.519531 C 460.839844 669.976562 459.820312 705.613281 460.238281 741.09375 C 460.382812 753.5625 460.527344 766.03125 460.652344 778.5 C 460.671875 780.378906 463.542969 780.382812 463.578125 778.5 "/></g></svg>