<?xml version="1.0" standalone="no"?>
<!DOCTYPE svg PUBLIC "-//W3C//DTD SVG 20010904//EN"
 "http://www.w3.org/TR/2001/REC-SVG-20010904/DTD/svg10.dtd">
<svg version="1.0" xmlns="http://www.w3.org/2000/svg"
 width="512.000000pt" height="512.000000pt" viewBox="0 0 512.000000 512.000000"
 preserveAspectRatio="xMidYMid meet">

<g transform="translate(0.000000,512.000000) scale(0.100000,-0.100000)"
fill="#000000" stroke="none">
<path d="M982 4513 c-18 -7 -93 -115 -147 -213 -154 -280 -233 -579 -223 -848
5 -118 4 -123 -16 -127 -12 -2 -48 -9 -81 -15 -218 -41 -377 -106 -410 -170
-11 -22 -15 -68 -15 -190 l0 -161 -31 -27 c-61 -51 -59 -17 -59 -894 l0 -803
24 -51 c123 -265 819 -414 1935 -414 685 0 1207 54 1554 161 l98 30 42 -34
c112 -91 242 -145 372 -154 72 -5 105 0 330 51 159 36 272 67 312 86 164 76
304 282 378 553 72 267 93 714 51 1058 -102 815 -452 1607 -855 1931 -143 114
-291 177 -419 178 -71 0 -539 -108 -609 -142 -120 -56 -243 -198 -308 -355 -1
-2 -35 5 -76 13 -98 22 -255 21 -343 0 -38 -9 -137 -48 -220 -87 -83 -39 -187
-84 -231 -100 -209 -74 -472 -54 -631 49 -157 102 -269 309 -289 533 -8 86
-21 126 -46 139 -19 10 -65 12 -87 3z m2970 -253 c231 -87 485 -398 673 -823
146 -331 262 -762 307 -1142 18 -157 15 -548 -6 -710 -64 -505 -271 -779 -537
-711 -254 65 -543 413 -747 902 -325 776 -393 1743 -157 2230 119 246 271 329
467 254z m-601 -141 c-76 -143 -133 -346 -162 -579 -18 -142 -15 -507 5 -685
88 -764 371 -1484 733 -1865 52 -55 127 -124 165 -152 l70 -52 -33 -9 c-19 -5
-65 -7 -102 -4 -55 3 -86 13 -155 47 -283 141 -615 666 -783 1240 -46 156
-110 466 -136 655 -27 200 -25 667 5 825 49 267 122 439 232 551 56 57 75 70
130 87 36 11 66 19 68 17 1 -1 -15 -36 -37 -76z m-2261 -199 c43 -78 166 -196
254 -245 191 -107 477 -133 702 -64 38 11 140 54 227 95 87 42 193 84 234 95
85 21 205 25 283 8 48 -10 51 -13 45 -36 -50 -201 -75 -416 -75 -649 l0 -191
-47 -6 c-124 -16 -653 -29 -933 -23 -278 6 -633 24 -802 42 l-66 7 -30 66
c-114 255 -133 561 -51 836 24 81 39 89 39 20 0 -97 46 -256 107 -364 45 -82
176 -215 258 -262 88 -51 182 -89 219 -89 33 0 66 26 79 63 12 32 -19 87 -55
99 -98 34 -195 94 -263 162 -110 111 -165 247 -179 441 -7 101 -7 101 54 -5z
m-408 -849 c15 -47 25 -87 22 -90 -14 -14 -373 65 -397 88 -15 15 283 94 332
88 8 -1 26 -37 43 -86z m-277 -211 c205 -52 447 -82 920 -112 251 -16 1073
-16 1289 0 88 7 161 11 162 9 2 -1 7 -38 13 -82 6 -44 13 -101 17 -126 l6 -47
-38 -6 c-85 -13 -1230 -19 -1494 -7 -423 19 -712 50 -912 97 l-108 26 0 145
c0 134 1 145 18 138 9 -4 67 -20 127 -35z m-115 -429 c221 -56 517 -90 965
-112 236 -11 1442 -6 1545 7 l46 6 37 -149 c112 -454 295 -864 515 -1156 41
-54 72 -100 70 -102 -9 -9 -210 -56 -318 -74 -294 -50 -566 -71 -1040 -78
-461 -7 -807 8 -1120 48 -417 53 -705 139 -790 236 l-30 34 0 518 0 518 142
-34 c266 -63 536 -103 831 -123 124 -8 153 -8 177 5 49 25 58 95 16 134 -19
18 -45 23 -207 36 -345 29 -605 66 -794 115 -177 46 -165 37 -165 125 0 41 1
75 3 75 1 0 54 -13 117 -29z"/>
<path d="M3855 3997 c-134 -45 -212 -149 -251 -332 -20 -95 -23 -386 -4 -453
14 -55 58 -79 110 -60 48 16 58 52 50 178 -12 196 12 365 63 441 36 54 79 71
160 63 58 -5 71 -3 89 12 49 45 42 111 -16 141 -41 21 -150 26 -201 10z"/>
<path d="M4629 2111 c-24 -19 -24 -21 -25 -228 -1 -226 -11 -287 -60 -370 -36
-62 -71 -77 -161 -69 -69 6 -74 5 -98 -18 -33 -34 -34 -88 -1 -121 47 -47 198
-47 286 1 91 49 154 150 187 296 13 54 17 121 17 263 0 195 -5 223 -43 252
-24 19 -76 15 -102 -6z"/>
<path d="M1566 2109 c-19 -15 -26 -30 -26 -55 0 -47 13 -69 50 -84 40 -16 85
1 106 42 41 79 -58 153 -130 97z"/>
</g>
</svg>
