<?xml version="1.0" standalone="no"?>
<!DOCTYPE svg PUBLIC "-//W3C//DTD SVG 20010904//EN"
 "http://www.w3.org/TR/2001/REC-SVG-20010904/DTD/svg10.dtd">
<svg version="1.0" xmlns="http://www.w3.org/2000/svg"
 width="512.000000pt" height="512.000000pt" viewBox="0 0 512.000000 512.000000"
 preserveAspectRatio="xMidYMid meet">

<g transform="translate(0.000000,512.000000) scale(0.100000,-0.100000)"
fill="#000000" stroke="none">
<path d="M415 4786 c-41 -18 -83 -69 -90 -109 -3 -18 -4 -982 -3 -2144 l3
-2112 21 -27 c11 -15 33 -37 48 -48 27 -20 39 -21 406 -21 367 0 379 1 406 21
53 39 69 71 69 134 0 63 -16 95 -69 134 -26 20 -43 21 -297 24 l-269 3 0 1919
0 1920 1549 2 c1547 3 1550 3 1577 24 53 39 69 71 69 134 0 63 -16 95 -69 134
-27 21 -28 21 -1674 23 -1354 2 -1652 0 -1677 -11z"/>
<path d="M4330 4786 c-30 -6 -75 -22 -100 -35 -31 -16 -257 -234 -748 -724
-763 -761 -786 -787 -852 -958 -69 -178 -89 -376 -44 -436 45 -60 67 -68 177
-67 161 2 325 53 474 150 70 45 1460 1427 1503 1494 126 198 36 477 -182 558
-72 27 -161 34 -228 18z m127 -328 c51 -48 72 -24 -674 -769 -717 -715 -726
-723 -845 -768 -26 -10 -27 -9 -17 17 45 119 53 128 768 845 541 542 701 697
720 697 14 0 35 -10 48 -22z"/>
<path d="M1380 4309 c-14 -5 -78 -62 -142 -126 l-117 -117 -45 42 c-74 68
-161 69 -227 3 -41 -41 -55 -88 -44 -148 5 -31 28 -60 123 -155 126 -125 149
-138 230 -123 31 5 67 36 234 203 211 211 219 224 204 307 -17 91 -127 149
-216 114z"/>
<path d="M1380 3349 c-14 -5 -78 -62 -142 -126 l-117 -117 -45 42 c-74 68
-161 69 -227 3 -41 -41 -55 -88 -44 -148 5 -31 28 -60 123 -155 126 -125 149
-138 230 -123 31 5 67 36 234 203 211 211 219 224 204 307 -17 91 -127 149
-216 114z"/>
<path d="M3615 2866 c-37 -17 -70 -52 -84 -89 -8 -19 -11 -360 -11 -1082 l0
-1054 -269 -3 c-254 -3 -271 -4 -297 -24 -53 -39 -69 -71 -69 -134 0 -63 16
-95 69 -134 27 -20 39 -21 406 -21 367 0 379 1 406 21 15 11 37 33 48 48 21
27 21 31 21 1206 0 1175 0 1179 -21 1206 -11 15 -32 37 -46 47 -34 25 -113 32
-153 13z"/>
<path d="M1533 2466 c-279 -139 -518 -264 -530 -277 -12 -13 -26 -37 -32 -52
-15 -39 -15 -1195 0 -1234 6 -15 20 -39 32 -52 12 -13 251 -138 530 -277 405
-203 516 -254 547 -254 31 0 142 51 547 254 279 139 518 264 530 277 12 13 26
37 32 52 15 39 15 1195 0 1234 -6 15 -20 39 -32 52 -12 13 -251 138 -530 277
-405 203 -516 254 -547 254 -31 0 -142 -51 -547 -254z m842 -233 c162 -82 295
-150 295 -153 0 -3 -133 -71 -295 -153 l-295 -147 -295 147 c-162 82 -295 150
-295 153 0 4 574 296 587 299 2 1 136 -65 298 -146z m-455 -1113 l0 -380 -320
160 -320 160 0 380 0 380 320 -160 320 -160 0 -380z m960 320 l0 -380 -320
-160 -320 -160 0 380 0 380 318 159 c174 88 318 160 320 160 1 1 2 -170 2
-379z"/>
</g>
</svg>
