<?xml version="1.0" standalone="no"?>
<!DOCTYPE svg PUBLIC "-//W3C//DTD SVG 20010904//EN"
 "http://www.w3.org/TR/2001/REC-SVG-20010904/DTD/svg10.dtd">
<svg version="1.0" xmlns="http://www.w3.org/2000/svg"
 width="512.000000pt" height="512.000000pt" viewBox="0 0 512.000000 512.000000"
 preserveAspectRatio="xMidYMid meet">

<g transform="translate(0.000000,512.000000) scale(0.100000,-0.100000)"
fill="#000000" stroke="none">
<path d="M1426 4949 c-62 -15 -153 -68 -197 -116 -22 -24 -55 -74 -72 -111
l-32 -67 -3 -543 -3 -542 25 -25 c33 -33 79 -33 111 0 l25 24 0 512 c0 372 3
523 12 553 16 55 99 138 154 154 60 17 2168 17 2228 0 55 -16 138 -99 154
-154 8 -26 12 -112 12 -233 0 -190 0 -192 25 -216 32 -33 78 -33 111 0 l26 26
-4 222 -3 223 -37 76 c-45 91 -103 147 -196 191 l-67 32 -1115 2 c-652 1
-1131 -3 -1154 -8z"/>
<path d="M2025 4535 c-16 -15 -25 -36 -25 -55 0 -19 9 -40 25 -55 21 -22 33
-25 95 -25 62 0 74 3 95 25 16 15 25 36 25 55 0 19 -9 40 -25 55 -21 22 -33
25 -95 25 -62 0 -74 -3 -95 -25z"/>
<path d="M2345 4535 c-16 -15 -25 -36 -25 -55 0 -19 9 -40 25 -55 l24 -25 351
0 351 0 24 25 c16 15 25 36 25 55 0 19 -9 40 -25 55 l-24 25 -351 0 -351 0
-24 -25z"/>
<path d="M3353 4145 c-203 -37 -390 -139 -531 -289 -103 -110 -179 -240 -221
-380 -30 -97 -28 -149 5 -175 15 -12 37 -21 49 -21 35 0 73 37 81 78 4 20 18
68 30 106 113 333 450 557 802 533 185 -13 315 -67 496 -207 46 -35 74 -38
110 -9 20 16 26 29 26 59 0 33 -7 44 -52 85 -203 183 -519 270 -795 220z"/>
<path d="M4205 3735 c-34 -33 -31 -66 9 -139 180 -324 125 -705 -139 -971
l-68 -68 6 -86 c3 -47 17 -124 31 -171 13 -47 23 -86 22 -87 -5 -5 -110 49
-154 78 -26 18 -71 55 -100 82 l-53 49 -57 -6 c-206 -23 -302 -16 -470 35 -37
12 -47 11 -70 -2 -58 -32 -54 -111 9 -141 102 -50 338 -81 463 -60 l60 10 70
-55 c142 -109 335 -185 506 -199 75 -6 79 -6 104 19 34 34 34 79 1 112 -13 14
-36 25 -51 25 -60 0 -117 104 -144 264 l-12 66 56 60 c148 161 238 370 252
590 12 170 -21 330 -99 488 -62 126 -119 161 -172 107z"/>
<path d="M3187 3670 c-238 -60 -369 -317 -273 -535 30 -66 64 -101 378 -392
235 -218 225 -214 326 -121 325 300 455 427 481 466 79 126 79 278 -1 404 -41
65 -99 115 -177 152 -61 28 -74 31 -166 31 -86 -1 -109 -5 -167 -29 l-68 -27
-67 27 c-75 29 -199 41 -266 24z m247 -194 c37 -20 75 -36 86 -36 11 0 49 16
84 36 117 64 226 57 313 -19 54 -48 82 -105 83 -165 0 -46 -21 -105 -47 -134
-14 -15 -14 -20 -2 -35 13 -15 12 -15 -5 -6 -17 10 -45 -13 -223 -179 l-203
-190 -202 190 c-194 181 -204 189 -222 173 -18 -15 -18 -15 -5 6 11 19 11 24
-4 40 -47 53 -60 149 -28 218 21 48 96 117 143 133 18 6 63 10 100 8 54 -3 79
-10 132 -40z"/>
<path d="M1705 3514 c-212 -32 -376 -94 -536 -200 -130 -88 -157 -136 -104
-189 37 -38 70 -32 155 29 360 260 827 273 1189 35 493 -325 618 -992 276
-1474 -57 -80 -206 -222 -281 -267 -182 -111 -341 -159 -534 -161 -69 -1 -156
2 -195 6 l-70 8 -73 -55 c-40 -31 -110 -74 -155 -96 -83 -40 -227 -85 -227
-71 0 5 13 38 30 74 34 76 80 227 80 265 0 19 -24 48 -101 121 -56 53 -124
125 -151 161 -68 89 -143 245 -175 365 -23 87 -26 120 -27 255 0 132 3 168 23
244 33 127 79 230 150 338 52 77 61 98 57 123 -11 57 -75 83 -123 50 -29 -20
-101 -131 -151 -230 -135 -271 -157 -596 -61 -895 57 -176 158 -340 296 -478
l93 -94 -32 -95 c-50 -152 -120 -243 -188 -243 -32 0 -70 -44 -70 -80 0 -50
38 -80 102 -80 68 0 240 25 321 46 150 38 303 108 387 174 l38 30 123 -6 c350
-18 670 105 915 350 270 270 396 647 339 1016 -41 269 -150 487 -339 676 -170
170 -369 278 -608 330 -71 15 -312 27 -373 18z"/>
<path d="M1932 3187 c-103 -39 -157 -135 -172 -302 -8 -85 -16 -121 -39 -171
-34 -73 -97 -145 -157 -180 l-42 -25 -26 26 c-25 25 -28 25 -176 25 -147 0
-152 -1 -175 -25 l-25 -24 0 -351 0 -351 25 -24 c23 -24 28 -25 175 -25 147 0
152 1 175 24 l25 25 72 -25 c70 -24 77 -24 418 -24 403 0 413 2 483 80 24 26
49 66 55 88 17 54 16 490 0 546 -16 55 -99 138 -154 154 -23 7 -72 12 -109 12
l-67 0 6 28 c14 61 18 193 7 272 -21 163 -90 248 -207 256 -33 2 -73 -2 -92
-9z m121 -189 c23 -47 34 -225 18 -284 -6 -22 -24 -61 -41 -85 -36 -54 -38
-92 -5 -124 23 -24 28 -25 175 -25 147 0 152 -1 175 -25 l25 -24 0 -231 0
-231 -25 -24 -24 -25 -328 0 -329 0 -84 28 -85 29 -2 179 -3 179 80 38 c174
82 299 262 315 454 11 132 16 153 42 183 36 43 72 38 96 -12z m-693 -838 l0
-240 -40 0 -40 0 0 240 0 240 40 0 40 0 0 -240z"/>
<path d="M3865 1975 l-25 -24 0 -712 c0 -530 -3 -722 -12 -753 -16 -55 -99
-138 -154 -154 -60 -17 -2168 -17 -2228 0 -55 16 -138 99 -154 154 -7 23 -12
92 -12 153 0 105 -1 113 -25 136 -32 33 -78 33 -112 -1 -25 -25 -25 -26 -21
-167 3 -134 5 -146 35 -209 44 -93 100 -151 191 -196 l76 -37 1136 0 1136 0
76 37 c91 45 147 103 191 196 l32 67 3 743 3 742 -25 25 c-33 33 -79 33 -111
0z"/>
<path d="M2265 695 c-16 -15 -25 -36 -25 -55 0 -19 9 -40 25 -55 l24 -25 271
0 271 0 24 25 c16 15 25 36 25 55 0 19 -9 40 -25 55 l-24 25 -271 0 -271 0
-24 -25z"/>
</g>
</svg>
