<?xml version="1.0" standalone="no"?>
<!DOCTYPE svg PUBLIC "-//W3C//DTD SVG 20010904//EN"
 "http://www.w3.org/TR/2001/REC-SVG-20010904/DTD/svg10.dtd">
<svg version="1.0" xmlns="http://www.w3.org/2000/svg"
 width="512.000000pt" height="512.000000pt" viewBox="0 0 512.000000 512.000000"
 preserveAspectRatio="xMidYMid meet">

<g transform="translate(0.000000,512.000000) scale(0.100000,-0.100000)"
fill="#000000" stroke="none">
<path d="M645 5095 c-14 -13 -25 -33 -25 -44 0 -35 -56 -176 -92 -232 -46 -72
-127 -150 -191 -184 -71 -38 -87 -54 -87 -86 0 -45 10 -59 59 -84 137 -69 250
-218 301 -399 23 -82 42 -106 85 -106 43 0 70 32 85 100 7 30 30 92 52 138 49
104 143 204 234 250 107 54 109 117 5 172 -125 67 -226 199 -281 370 -17 55
-39 102 -51 113 -30 24 -66 21 -94 -8z m99 -370 c26 -41 76 -100 110 -132 l64
-58 -40 -30 c-47 -35 -117 -118 -155 -183 -24 -40 -28 -43 -37 -27 -46 78 -96
142 -147 189 l-61 57 69 63 c37 35 86 94 108 130 22 36 40 65 41 66 0 0 22
-34 48 -75z"/>
<path d="M4381 4873 c-13 -11 -28 -43 -37 -78 -42 -164 -150 -313 -284 -393
-114 -68 -116 -118 -5 -179 122 -68 239 -227 281 -383 21 -79 46 -110 89 -110
43 0 62 24 85 109 33 119 84 207 164 286 39 39 89 79 111 89 61 30 85 55 85
90 0 42 -6 48 -80 92 -132 76 -241 230 -284 399 -16 64 -43 95 -81 95 -13 0
-32 -8 -44 -17z m84 -368 c21 -36 69 -95 107 -132 l70 -66 -61 -54 c-33 -30
-83 -88 -110 -129 l-49 -75 -38 63 c-21 35 -69 94 -106 131 l-68 68 74 73 c41
40 88 98 106 129 18 32 33 57 35 57 1 0 19 -29 40 -65z"/>
<path d="M2489 4796 c-56 -20 -690 -457 -702 -484 -25 -54 35 -117 90 -96 15
6 164 104 330 217 165 114 313 212 327 218 20 10 32 9 53 0 15 -7 180 -117
368 -245 187 -128 705 -482 1150 -786 446 -304 815 -558 822 -564 16 -14 -62
-140 -82 -132 -11 4 -1281 869 -2037 1387 -164 113 -224 149 -247 149 -24 0
-120 -61 -429 -272 -218 -149 -722 -493 -1119 -765 -398 -271 -729 -496 -737
-499 -13 -5 -37 26 -89 113 -5 7 248 185 720 508 400 274 733 505 740 514 14
18 16 50 7 76 -10 24 -63 45 -90 35 -35 -14 -1517 -1028 -1541 -1056 -13 -14
-23 -35 -23 -46 0 -12 43 -88 97 -170 89 -139 116 -168 154 -168 5 0 85 51
177 113 93 63 174 117 180 121 9 5 12 -279 12 -1248 l0 -1256 -130 0 c-126 0
-132 -1 -155 -25 -25 -24 -25 -26 -25 -205 0 -179 0 -181 25 -205 l24 -25
1184 0 c1183 0 1184 0 1211 21 36 28 36 80 0 108 -27 21 -29 21 -1160 21
l-1134 0 0 80 0 80 2100 0 2100 0 0 -80 0 -80 -825 0 -826 0 -24 -25 c-14 -13
-25 -36 -25 -50 0 -14 11 -37 25 -50 l24 -25 876 0 876 0 24 25 c25 24 25 26
25 205 0 179 0 181 -25 205 -23 24 -29 25 -155 25 l-130 0 0 670 0 671 -25 24
c-31 32 -69 32 -100 0 l-25 -24 0 -671 0 -670 -1015 0 -1015 0 0 1068 c0 1023
-1 1070 -18 1085 -17 15 -78 17 -675 17 l-656 0 -20 -26 c-21 -27 -21 -29 -21
-1085 l0 -1059 -80 0 -80 0 0 1308 0 1308 398 271 c218 149 621 425 895 612
l497 340 895 -611 895 -612 0 -501 0 -502 23 -21 c30 -28 78 -29 103 -1 18 20
19 46 24 470 l5 450 167 -115 c92 -63 176 -117 187 -121 42 -13 67 12 164 163
54 82 97 158 97 170 0 12 -12 35 -27 51 -16 16 -413 291 -883 612 -470 321
-1012 690 -1204 821 -191 131 -364 242 -385 248 -48 13 -88 12 -132 -4z m-319
-3326 l0 -1010 -545 0 -545 0 0 1010 0 1010 545 0 545 0 0 -1010z"/>
<path d="M1261 1674 c-19 -25 -21 -40 -21 -195 0 -179 6 -209 47 -228 36 -16
51 -14 78 14 25 24 25 26 25 210 0 172 -1 186 -20 205 -30 30 -83 27 -109 -6z"/>
<path d="M2518 3860 c-18 -14 -30 -40 -42 -87 -41 -165 -158 -320 -293 -391
-44 -23 -65 -40 -69 -58 -12 -48 3 -71 72 -109 132 -74 232 -210 284 -385 28
-93 42 -110 90 -110 48 0 64 19 84 100 38 153 152 313 268 375 70 37 98 63 98
92 0 40 -17 60 -80 94 -121 64 -232 215 -280 379 -32 110 -77 144 -132 100z
m182 -490 l75 -75 -80 -80 c-44 -44 -91 -101 -105 -127 -14 -27 -27 -48 -30
-48 -3 1 -23 30 -45 66 -22 36 -70 94 -106 128 l-65 62 71 70 c39 38 88 97
110 132 l38 63 31 -58 c17 -32 64 -91 106 -133z"/>
<path d="M2817 2612 c-15 -17 -17 -78 -17 -675 l0 -656 26 -20 c26 -21 34 -21
660 -21 443 0 640 3 657 11 14 6 30 22 36 36 8 17 11 214 11 657 0 626 0 634
-21 660 l-20 26 -658 0 c-625 0 -659 -1 -674 -18z m601 -364 l-3 -233 -232 -3
-233 -2 0 235 0 235 235 0 235 0 -2 -232z m620 0 l-3 -233 -232 -3 -233 -2 0
235 0 235 235 0 235 0 -2 -232z m-618 -623 l0 -235 -235 0 -235 0 0 235 0 235
235 0 235 0 0 -235z m620 0 l0 -235 -235 0 -235 0 0 235 0 235 235 0 235 0 0
-235z"/>
</g>
</svg>
