<?xml version="1.0" standalone="no"?>
<!DOCTYPE svg PUBLIC "-//W3C//DTD SVG 20010904//EN"
 "http://www.w3.org/TR/2001/REC-SVG-20010904/DTD/svg10.dtd">
<svg version="1.0" xmlns="http://www.w3.org/2000/svg"
 width="512.000000pt" height="512.000000pt" viewBox="0 0 512.000000 512.000000"
 preserveAspectRatio="xMidYMid meet">

<g transform="translate(0.000000,512.000000) scale(0.100000,-0.100000)"
fill="#000000" stroke="none">
<path d="M905 5015 l-25 -24 0 -456 0 -455 -55 0 c-46 0 -60 -4 -80 -25 l-25
-24 0 -303 -1 -303 -71 -45 c-210 -133 -409 -390 -496 -640 -70 -201 -67 -151
-67 -1311 l0 -1045 37 -76 c45 -91 103 -147 196 -191 l67 -32 2220 -3 c1732
-2 2230 0 2265 10 58 16 141 96 158 154 17 59 17 1689 0 1746 -6 22 -31 62
-55 88 -70 78 -81 80 -475 80 l-338 0 0 215 c0 216 0 216 -25 240 l-24 25
-511 0 -511 0 -24 -25 c-25 -24 -25 -24 -25 -240 l0 -215 -199 0 -198 0 -6
168 c-8 243 -46 396 -145 584 -92 176 -266 370 -420 468 l-71 45 -1 303 0 303
-25 24 c-20 21 -34 25 -80 25 l-55 0 0 455 0 456 -25 24 -24 25 -431 0 -431 0
-24 -25z m775 -215 l0 -80 -56 0 c-87 0 -133 -18 -189 -75 -102 -101 -102
-229 0 -330 56 -57 102 -75 189 -75 l56 0 0 -80 0 -80 -320 0 -320 0 0 400 0
400 320 0 320 0 0 -80z m0 -320 l0 -80 -55 0 c-67 0 -105 29 -105 80 0 51 38
80 105 80 l55 0 0 -80z m160 -766 c0 -192 -1 -206 -17 -199 -121 46 -330 85
-463 85 -137 0 -337 -37 -465 -86 -13 -5 -15 21 -15 200 l0 206 480 0 480 0 0
-206z m-310 -289 c235 -35 449 -144 620 -315 222 -222 329 -493 330 -832 l0
-118 -56 0 c-87 0 -133 -18 -189 -75 -70 -69 -75 -93 -75 -333 l0 -201 -47 21
c-64 29 -161 29 -224 1 -25 -11 -71 -44 -102 -72 -90 -80 -124 -80 -214 0 -74
68 -131 92 -213 93 -82 1 -137 -24 -213 -93 -90 -80 -124 -80 -214 0 -31 28
-77 61 -102 72 -63 28 -160 28 -223 -1 l-48 -21 0 305 0 304 720 0 720 0 0 80
0 80 -775 0 -776 0 -24 -25 -25 -24 0 -832 c0 -624 3 -842 12 -873 16 -55 99
-138 154 -154 31 -9 237 -12 818 -12 l776 0 0 -57 c0 -32 3 -68 6 -81 l6 -22
-862 0 c-648 0 -873 3 -904 12 -55 16 -138 99 -154 154 -19 66 -17 1968 3
2089 57 352 277 655 594 819 213 110 443 148 681 111z m2470 -1105 l0 -160
-400 0 -400 0 0 160 0 160 400 0 400 0 0 -160z m855 -345 l25 -24 0 -831 0
-831 -25 -24 -24 -25 -1231 0 -1231 0 -24 25 -25 24 0 831 0 831 25 24 24 25
1231 0 1231 0 24 -25z m-4092 -546 c12 -7 44 -32 70 -56 66 -61 126 -87 207
-87 82 0 138 25 213 93 89 80 125 80 212 1 84 -76 126 -95 215 -95 89 0 131
19 215 95 88 79 126 79 211 -2 l54 -51 0 -383 0 -384 -775 0 -776 0 -24 25
-25 24 0 358 0 359 48 46 c72 69 107 82 155 57z"/>
<path d="M2505 1655 l-25 -24 0 -591 0 -591 25 -24 24 -25 1071 0 1071 0 24
25 25 24 0 591 0 591 -25 24 -24 25 -1071 0 -1071 0 -24 -25z m2055 -615 l0
-480 -960 0 -960 0 0 480 0 480 960 0 960 0 0 -480z"/>
<path d="M3520 1200 l0 -80 -80 0 -80 0 0 -80 0 -80 80 0 80 0 0 -80 0 -80 80
0 80 0 0 80 0 80 80 0 80 0 0 80 0 80 -80 0 -80 0 0 80 0 80 -80 0 -80 0 0
-80z m160 -160 l0 -80 -80 0 -80 0 0 80 0 80 80 0 80 0 0 -80z"/>
<path d="M4598 5030 c-9 -6 -33 -44 -53 -85 -46 -97 -112 -162 -212 -212 -59
-29 -80 -45 -87 -65 -18 -52 1 -79 87 -121 100 -50 164 -114 214 -214 29 -59
45 -80 66 -87 51 -18 78 1 120 87 49 99 116 165 216 214 83 42 103 69 85 121
-7 20 -28 36 -85 65 -100 49 -168 117 -215 212 -19 41 -44 80 -54 85 -23 13
-60 12 -82 0z m109 -320 l70 -70 -69 -68 -68 -69 -68 69 -69 68 66 69 c36 37
66 69 67 70 0 0 32 -30 71 -69z"/>
<path d="M2222 4897 c-61 -62 -112 -117 -112 -123 0 -13 92 -104 106 -104 5 0
61 52 124 115 l114 115 -54 55 c-30 30 -57 55 -60 55 -3 0 -56 -51 -118 -113z"/>
<path d="M2240 4480 l0 -80 160 0 160 0 0 80 0 80 -160 0 -160 0 0 -80z"/>
<path d="M2157 4242 c-26 -26 -47 -52 -47 -58 0 -5 52 -61 115 -124 l115 -115
57 58 58 57 -115 115 c-63 63 -119 115 -125 115 -6 0 -32 -22 -58 -48z"/>
<path d="M2998 3910 c-9 -6 -33 -44 -53 -85 -46 -97 -112 -162 -212 -212 -59
-29 -80 -45 -87 -65 -18 -52 1 -79 87 -121 100 -50 164 -114 214 -214 29 -59
45 -80 66 -87 51 -18 78 1 120 87 49 99 116 165 216 214 83 42 103 69 85 121
-7 20 -28 36 -85 65 -100 49 -168 117 -215 212 -19 41 -44 80 -54 85 -23 13
-60 12 -82 0z m109 -320 l70 -70 -69 -68 -68 -69 -68 69 -69 68 66 69 c36 37
66 69 67 70 0 0 32 -30 71 -69z"/>
</g>
</svg>
