<?xml version="1.0" standalone="no"?>
<!DOCTYPE svg PUBLIC "-//W3C//DTD SVG 20010904//EN"
 "http://www.w3.org/TR/2001/REC-SVG-20010904/DTD/svg10.dtd">
<svg version="1.0" xmlns="http://www.w3.org/2000/svg"
 width="512.000000pt" height="512.000000pt" viewBox="0 0 512.000000 512.000000"
 preserveAspectRatio="xMidYMid meet">

<g transform="translate(0.000000,512.000000) scale(0.100000,-0.100000)"
fill="#000000" stroke="none">
<path d="M1759 5098 c-20 -11 -46 -38 -58 -58 -20 -36 -21 -51 -21 -367 0
-327 0 -330 23 -364 12 -18 38 -44 56 -56 31 -21 45 -23 177 -23 l144 0 0
-106 c0 -80 4 -113 16 -134 18 -29 62 -60 88 -60 14 0 16 -16 16 -115 l0 -115
-125 0 c-205 0 -235 -25 -235 -197 l0 -103 -293 0 c-319 0 -355 -5 -420 -55
-20 -14 -47 -50 -62 -78 l-25 -51 0 -1520 0 -1520 21 -43 c25 -53 86 -106 138
-121 28 -9 387 -12 1367 -12 l1329 0 50 24 c54 25 100 71 122 123 10 26 13
127 13 481 0 415 -1 450 -17 465 -33 29 -68 31 -99 4 l-29 -25 -5 -442 -5
-442 -24 -19 c-23 -18 -59 -19 -1343 -19 l-1319 0 -24 25 -25 24 0 1500 0
1499 31 26 31 26 1308 0 1308 0 31 -26 31 -26 2 -920 3 -920 24 -19 c30 -25
76 -24 101 1 20 20 20 33 20 948 l0 928 -25 51 c-15 28 -42 64 -62 78 -65 50
-101 55 -420 55 l-293 0 0 103 c0 172 -30 197 -235 197 l-125 0 0 115 c0 99 2
115 16 115 26 0 70 31 88 60 12 21 16 54 16 134 l0 106 144 0 c132 0 146 2
177 23 18 12 44 38 56 56 23 34 23 37 23 364 0 317 -1 331 -21 367 -12 21 -38
47 -59 59 -37 21 -48 21 -483 21 l-446 0 -20 -26 c-26 -33 -27 -65 -2 -95 l19
-24 431 -3 431 -3 0 -294 0 -295 -730 0 -730 0 0 294 0 295 161 3 c155 3 161
4 180 27 25 30 24 62 -2 95 l-20 26 -177 0 c-162 0 -180 -2 -213 -22z m1131
-943 l0 -75 -330 0 -330 0 0 75 0 75 330 0 330 0 0 -75z m-120 -340 l0 -115
-210 0 -210 0 0 115 0 115 210 0 210 0 0 -115z m360 -340 l0 -75 -570 0 -570
0 0 75 0 75 570 0 570 0 0 -75z"/>
<path d="M1955 2413 c-35 -9 -87 -54 -101 -89 -11 -27 -14 -142 -14 -630 0
-589 0 -597 21 -634 12 -21 38 -47 59 -59 37 -21 45 -21 640 -21 601 0 602 0
641 22 25 14 46 37 59 63 19 40 20 62 20 633 0 657 2 637 -66 688 l-37 29
-601 1 c-331 1 -610 0 -621 -3z m1175 -713 l0 -570 -570 0 -570 0 0 570 0 570
570 0 570 0 0 -570z"/>
</g>
</svg>
