<?xml version="1.0" standalone="no"?>
<!DOCTYPE svg PUBLIC "-//W3C//DTD SVG 20010904//EN"
 "http://www.w3.org/TR/2001/REC-SVG-20010904/DTD/svg10.dtd">
<svg version="1.0" xmlns="http://www.w3.org/2000/svg"
 width="512.000000pt" height="512.000000pt" viewBox="0 0 512.000000 512.000000"
 preserveAspectRatio="xMidYMid meet">

<g transform="translate(0.000000,512.000000) scale(0.100000,-0.100000)"
fill="#000000" stroke="none">
<path d="M3760 5104 c-90 -24 -160 -65 -232 -135 -75 -73 -130 -173 -148 -268
-18 -97 -22 -92 77 -89 l88 3 7 53 c25 170 189 296 361 278 213 -22 348 -222
293 -433 -20 -78 -14 -94 62 -160 88 -77 117 -141 117 -258 0 -80 -3 -97 -30
-149 -19 -38 -51 -77 -91 -112 -34 -30 -65 -65 -68 -77 -3 -13 1 -47 9 -77 20
-75 19 -126 -6 -206 -28 -89 -104 -169 -194 -203 -90 -34 -197 -27 -283 19
-96 51 -154 133 -171 239 -4 28 -11 54 -14 57 -3 3 -42 2 -86 -2 -93 -8 -91
-5 -66 -112 33 -141 140 -279 266 -342 250 -127 553 -30 681 217 48 92 60 150
56 264 l-3 97 47 50 c52 55 99 142 117 217 19 78 15 204 -10 277 -22 67 -96
186 -133 215 -21 17 -22 24 -18 119 3 73 0 116 -11 155 -78 266 -360 432 -617
363z"/>
<path d="M1605 4665 l-25 -24 0 -486 0 -485 -136 0 c-136 0 -166 -6 -191 -39
-9 -11 -12 -80 -13 -242 l0 -227 -59 -4 c-33 -2 -67 -11 -77 -19 -15 -12 -428
-490 -517 -597 -18 -22 -27 -45 -27 -68 0 -31 501 -2388 515 -2426 4 -9 17
-24 30 -32 22 -14 124 -16 902 -16 969 0 911 -4 932 63 21 68 511 2375 511
2409 0 43 4 38 -295 387 -135 159 -243 276 -262 285 -17 9 -52 16 -77 16 l-46
0 0 228 c-1 163 -4 231 -13 243 -25 33 -55 39 -191 39 l-136 0 0 485 0 486
-25 24 -24 25 -376 0 -376 0 -24 -25z m655 -315 l0 -170 -85 0 -85 0 0 -85 0
-85 85 0 85 0 0 -170 0 -170 -255 0 -255 0 0 425 0 425 255 0 255 0 0 -170z
m340 -1020 l0 -170 -595 0 -595 0 0 170 0 170 595 0 595 0 0 -170z m-1094
-357 c-4 -10 -65 -119 -137 -244 -85 -149 -129 -236 -129 -255 1 -32 164 -771
172 -779 5 -5 144 22 159 31 3 2 -29 162 -72 356 -44 193 -79 361 -79 371 0
17 234 440 282 510 l19 27 287 0 287 0 151 -265 151 -265 -79 -352 c-43 -194
-78 -359 -78 -368 0 -13 19 -21 77 -34 42 -9 79 -13 83 -9 10 12 170 744 170
778 0 20 -45 109 -135 266 -74 130 -135 239 -135 243 0 3 71 6 159 6 l158 0
182 -212 182 -213 -120 -3 -121 -3 0 -84 0 -85 160 0 c146 0 160 -2 159 -17 0
-10 -44 -220 -97 -468 l-97 -450 -958 -3 -957 -2 0 -46 0 -47 -92 8 c-51 4
-93 8 -94 8 -1 2 -206 963 -212 995 l-4 22 161 0 161 0 0 85 0 84 -119 3 -119
3 181 212 182 213 159 0 c146 0 158 -1 152 -17z m1513 -1730 c-4 -21 -56 -261
-114 -533 -58 -272 -108 -505 -112 -517 l-5 -23 -783 0 -783 0 -10 48 c-6 26
-14 64 -17 84 l-7 38 706 0 706 0 0 45 0 45 80 0 c44 0 80 2 80 5 0 5 164 776
175 823 5 19 12 22 49 22 l44 0 -9 -37z"/>
<path d="M1660 2475 l0 -85 345 0 345 0 0 85 0 85 -345 0 -345 0 0 -85z"/>
<path d="M2993 4562 c-78 -20 -144 -40 -147 -43 -10 -9 27 -151 40 -156 11 -4
321 71 330 80 3 2 -3 38 -14 78 -16 66 -21 74 -43 76 -13 1 -88 -15 -166 -35z"/>
<path d="M2770 4095 l0 -85 215 0 215 0 0 85 0 85 -215 0 -215 0 0 -85z"/>
<path d="M3370 4095 l0 -85 85 0 85 0 0 85 0 85 -85 0 -85 0 0 -85z"/>
<path d="M2871 3801 c-5 -20 -15 -56 -21 -80 -8 -29 -8 -46 -1 -50 17 -11 322
-84 327 -78 11 11 43 152 36 158 -4 3 -80 24 -169 46 l-163 41 -9 -37z"/>
</g>
</svg>
