<?xml version="1.0" standalone="no"?>
<!DOCTYPE svg PUBLIC "-//W3C//DTD SVG 20010904//EN"
 "http://www.w3.org/TR/2001/REC-SVG-20010904/DTD/svg10.dtd">
<svg version="1.0" xmlns="http://www.w3.org/2000/svg"
 width="512.000000pt" height="512.000000pt" viewBox="0 0 512.000000 512.000000"
 preserveAspectRatio="xMidYMid meet">

<g transform="translate(0.000000,512.000000) scale(0.100000,-0.100000)"
fill="#000000" stroke="none">
<path d="M4171 5069 c-190 -14 -272 -36 -740 -198 -287 -100 -451 -149 -606
-182 -55 -12 -116 -29 -135 -38 -44 -21 -61 -61 -40 -99 32 -57 149 -64 345
-21 53 11 98 19 100 17 7 -7 26 -278 32 -461 l6 -197 -105 1 c-115 1 -154 -11
-184 -56 -14 -21 -16 -51 -13 -196 l4 -171 -68 -23 c-181 -61 -317 -197 -346
-345 -20 -103 -32 -344 -38 -767 -6 -421 -6 -423 -27 -423 -56 0 -126 -76
-126 -136 0 -53 32 -79 203 -162 247 -121 365 -220 431 -361 80 -174 22 -345
-185 -547 -119 -115 -214 -190 -393 -309 -272 -181 -399 -222 -537 -176 -90
29 -156 75 -464 321 -149 118 -373 289 -499 380 -305 220 -381 283 -443 365
-79 105 -98 164 -98 311 0 118 0 121 37 195 35 72 137 187 156 177 112 -58
128 -63 207 -62 98 1 165 25 249 89 l60 44 30 -23 c51 -38 147 -83 206 -95
111 -23 272 38 300 113 11 31 -8 75 -41 91 -39 21 -56 19 -107 -11 -80 -47
-127 -36 -242 57 -77 62 -122 82 -161 74 -15 -4 -60 -33 -99 -66 -98 -82 -121
-92 -194 -87 -107 7 -166 75 -166 191 0 101 39 159 136 203 54 24 94 64 94 95
0 26 -42 51 -95 57 -37 4 -46 9 -51 28 -8 30 3 108 21 150 27 66 107 113 192
114 l51 0 -5 -58 c-11 -117 40 -216 99 -193 37 14 48 33 59 103 5 34 24 92 42
128 58 117 157 166 316 158 67 -4 97 -10 137 -31 70 -36 140 -115 158 -180 9
-29 21 -72 28 -97 14 -49 44 -68 91 -56 46 11 60 111 32 220 -9 33 -13 61 -10
64 12 13 141 6 169 -8 71 -36 109 -124 92 -215 -8 -41 -64 -108 -110 -132 -61
-31 -60 -48 8 -122 29 -32 59 -75 66 -96 19 -58 8 -153 -26 -216 -37 -68 -91
-109 -196 -148 -110 -41 -130 -52 -147 -82 -17 -31 -9 -71 21 -101 19 -19 28
-20 96 -15 217 16 415 217 429 434 6 92 -8 176 -41 249 l-25 54 30 58 c93 180
24 396 -149 463 -73 29 -217 32 -275 6 l-38 -16 -50 36 c-27 19 -84 49 -127
66 -183 71 -397 34 -547 -95 l-49 -43 -106 0 c-99 0 -109 -2 -172 -33 -77 -38
-109 -72 -152 -162 -28 -59 -31 -76 -33 -172 l-2 -106 -51 -51 c-28 -28 -62
-75 -75 -104 -40 -88 -41 -133 -9 -277 4 -22 -3 -31 -55 -69 -192 -139 -287
-401 -237 -651 54 -266 215 -458 576 -688 69 -43 262 -174 430 -291 419 -293
536 -359 700 -397 83 -20 205 -20 272 0 46 13 303 156 493 275 l60 37 255 -8
c140 -4 613 -12 1050 -16 629 -7 802 -6 827 4 86 34 79 182 -10 219 -18 7 -98
16 -182 20 l-150 7 8 82 c4 44 10 365 13 711 6 632 -10 1253 -36 1440 -25 175
-74 306 -157 416 -49 65 -143 142 -204 166 l-36 15 -6 174 c-8 257 -27 284
-205 284 l-93 0 5 63 c3 34 8 148 11 252 6 202 31 505 43 516 8 8 213 65 357
100 129 31 294 32 350 2 51 -27 76 -55 109 -121 20 -40 36 -57 62 -68 76 -32
154 14 154 91 0 94 -111 240 -229 300 -47 23 -169 57 -196 53 -5 0 -57 -4
-114 -9z m-694 -511 c-4 -51 -11 -205 -17 -343 -6 -137 -13 -268 -16 -291 l-5
-41 -77 5 c-42 2 -78 5 -79 6 -2 1 -7 87 -13 192 -9 167 -28 445 -33 483 -1 9
25 21 83 37 47 12 96 27 110 33 52 21 53 19 47 -81z m264 -846 c4 -4 10 -55
14 -113 l7 -105 -165 4 c-208 6 -271 -1 -305 -35 -20 -20 -23 -31 -18 -61 7
-46 52 -92 91 -93 17 -1 91 0 165 1 107 1 151 -3 212 -19 229 -60 348 -190
397 -436 37 -183 43 -373 39 -1337 l-3 -916 -110 -6 c-60 -4 -330 -13 -600
-21 -269 -8 -534 -17 -587 -19 -54 -3 -98 -4 -98 -3 0 1 39 43 88 92 157 163
222 304 222 482 0 117 -13 178 -59 278 -67 143 -182 265 -339 361 l-67 41 -7
239 c-4 132 -9 419 -10 639 l-3 400 24 47 c48 98 121 140 316 179 145 30 175
45 175 90 0 36 -37 61 -105 71 -19 3 -20 12 -23 132 l-3 129 373 -8 c205 -4
376 -10 379 -13z"/>
<path d="M3855 2643 c-20 -52 -54 -681 -56 -1036 -1 -140 2 -172 16 -193 37
-57 99 -52 128 9 14 29 17 69 17 234 0 366 -27 871 -51 966 -11 40 -41 52 -54
20z"/>
<path d="M3808 1161 c-27 -24 -33 -36 -33 -70 0 -52 31 -93 79 -105 49 -13 85
1 114 44 69 103 -67 214 -160 131z"/>
<path d="M4534 4486 c-11 -8 -33 -45 -49 -83 -38 -89 -71 -143 -177 -288 -144
-196 -188 -299 -188 -435 0 -289 280 -529 563 -482 106 18 189 62 273 146 182
182 215 445 80 648 -19 30 -85 107 -146 173 -61 65 -140 163 -175 216 -36 54
-73 103 -84 109 -28 14 -73 13 -97 -4z m134 -263 c17 -27 72 -95 122 -153 50
-58 105 -134 123 -170 30 -60 32 -72 32 -170 0 -93 -3 -112 -27 -162 -32 -69
-97 -136 -163 -169 -42 -20 -64 -24 -145 -24 -88 0 -101 3 -162 33 -82 40
-150 112 -168 177 -17 60 -8 165 20 237 16 43 44 82 107 150 98 106 157 182
193 251 14 26 28 47 31 47 3 0 20 -21 37 -47z"/>
<path d="M4736 3649 c-80 -53 -135 -56 -222 -12 -50 25 -53 26 -78 9 -60 -39
-16 -110 86 -141 64 -19 79 -19 152 0 100 26 173 95 165 155 -6 37 -36 34
-103 -11z"/>
<path d="M994 4381 c-83 -50 -64 -168 33 -201 42 -15 96 8 123 52 24 40 25 60
4 104 -29 61 -101 81 -160 45z"/>
<path d="M1777 4275 c-20 -19 -29 -76 -30 -182 -1 -78 1 -87 22 -104 30 -24
46 -24 71 1 18 18 20 33 20 134 0 133 -9 166 -44 166 -14 0 -31 -7 -39 -15z"/>
<path d="M1567 3975 c-89 -15 -107 -26 -107 -66 0 -44 37 -62 139 -67 77 -4
89 -2 114 18 49 39 26 115 -38 124 -16 3 -65 -1 -108 -9z"/>
<path d="M1956 3976 c-61 -10 -83 -18 -98 -35 -48 -60 13 -101 153 -101 52 0
72 4 93 21 33 26 34 68 4 97 -32 29 -60 32 -152 18z"/>
<path d="M440 3809 c-150 -81 -210 -158 -210 -266 1 -103 59 -192 158 -240 74
-35 183 -38 253 -6 181 82 240 347 104 472 -58 54 -103 71 -184 71 -54 0 -76
-6 -121 -31z m159 -133 c75 -39 64 -168 -18 -211 -48 -24 -114 -20 -150 11
-64 53 -45 147 39 191 50 26 89 29 129 9z"/>
<path d="M1777 3828 c-27 -21 -51 -241 -29 -274 24 -37 91 -36 106 1 10 26 7
231 -4 259 -11 29 -44 35 -73 14z"/>
<path d="M662 1484 c-63 -44 -3 -98 328 -296 261 -156 324 -196 435 -278 235
-173 351 -207 536 -161 159 39 516 240 538 301 12 37 1 72 -31 94 -45 32 -76
21 -260 -92 -238 -147 -373 -180 -518 -128 -36 12 -157 79 -270 148 -218 133
-697 413 -721 423 -8 3 -24 -2 -37 -11z"/>
</g>
</svg>
