<?xml version="1.0" standalone="no"?>
<!DOCTYPE svg PUBLIC "-//W3C//DTD SVG 20010904//EN"
 "http://www.w3.org/TR/2001/REC-SVG-20010904/DTD/svg10.dtd">
<svg version="1.0" xmlns="http://www.w3.org/2000/svg"
 width="512.000000pt" height="512.000000pt" viewBox="0 0 512.000000 512.000000"
 preserveAspectRatio="xMidYMid meet">

<g transform="translate(0.000000,512.000000) scale(0.100000,-0.100000)"
fill="#000000" stroke="none">
<path d="M3599 5109 c-302 -44 -568 -191 -768 -423 l-42 -50 -83 17 c-179 37
-302 49 -602 54 -527 10 -855 -35 -1132 -156 -513 -222 -773 -665 -799 -1361
-12 -332 26 -563 187 -1121 57 -200 74 -248 95 -267 33 -28 57 -28 91 1 19 16
27 33 26 53 0 16 -39 162 -85 324 -131 456 -161 633 -161 935 1 364 67 648
205 875 68 112 234 276 344 342 265 158 612 228 1130 228 224 0 428 -14 578
-40 60 -10 110 -20 112 -22 2 -2 -9 -30 -26 -63 -148 -303 -156 -689 -21
-1003 52 -120 114 -217 207 -324 l75 -88 -42 0 c-68 0 -392 39 -508 61 -358
69 -610 170 -764 308 -56 51 -114 144 -122 198 -8 57 -33 83 -78 83 -44 0 -76
-37 -76 -89 0 -20 -7 -63 -15 -96 -57 -219 -263 -388 -595 -491 -63 -20 -122
-39 -130 -43 -39 -20 -41 -43 -37 -411 5 -399 12 -455 77 -651 65 -197 166
-368 301 -513 l71 -76 -58 -66 c-86 -96 -140 -169 -191 -256 l-46 -78 -51 0
-52 0 19 88 c15 68 20 130 21 282 2 302 -12 355 -91 348 -25 -2 -42 -11 -56
-29 -18 -25 -18 -33 -8 -128 20 -188 10 -343 -35 -521 -43 -170 -32 -190 102
-190 78 0 85 -2 79 -17 -23 -61 -65 -255 -74 -347 -23 -234 -12 -362 34 -380
9 -3 639 -6 1399 -6 l1383 0 27 21 26 20 0 164 c0 214 -12 297 -76 523 -6 22
-5 22 78 22 77 0 86 2 108 25 27 28 29 8 -22 225 -13 55 -21 139 -25 240 -9
249 13 372 152 859 51 179 104 377 116 439 l24 112 75 29 c41 15 127 43 190
60 159 44 309 116 325 155 22 53 -10 106 -65 106 -11 0 -47 -14 -80 -30 -76
-39 -138 -61 -275 -100 -197 -56 -360 -136 -653 -321 -38 -24 -42 3 -16 100
51 184 24 276 -106 369 -211 149 -345 315 -421 522 -50 139 -62 210 -62 375 0
128 4 164 26 246 52 197 143 357 281 495 405 403 1039 416 1463 30 133 -121
257 -327 302 -498 64 -248 42 -501 -64 -725 -49 -104 -82 -155 -166 -255 -42
-50 -59 -79 -59 -99 0 -39 32 -69 74 -69 29 0 43 10 93 63 220 236 339 594
305 920 -17 158 -52 282 -122 422 -70 143 -128 221 -247 336 -141 136 -293
227 -473 284 -157 49 -367 67 -521 44z m-1977 -1917 c266 -181 780 -306 1361
-329 174 -7 187 -11 187 -65 0 -16 -12 -76 -27 -133 -25 -93 -26 -106 -14
-146 17 -56 78 -116 127 -125 l37 -7 -6 -116 c-17 -309 -139 -588 -355 -813
-197 -206 -438 -335 -716 -383 -112 -19 -304 -19 -423 0 -473 77 -871 423
-1017 884 -49 153 -56 228 -56 561 l0 307 83 27 c286 93 518 264 617 454 l22
43 67 -64 c36 -35 87 -78 113 -95z m1978 -723 c-12 -46 -59 -216 -105 -376
-95 -331 -131 -497 -144 -675 -10 -137 -1 -313 24 -429 8 -41 15 -77 15 -81 0
-5 -23 -8 -50 -8 -47 0 -52 3 -68 31 -50 90 -140 216 -205 285 l-74 79 69 75
c126 136 234 315 298 495 50 142 72 263 79 433 l6 153 85 53 c47 29 86 52 88
51 2 -2 -7 -40 -18 -86z m-2405 -1316 c37 -24 57 -45 61 -62 13 -63 48 -169
66 -206 125 -244 367 -405 636 -422 364 -22 690 219 781 576 17 71 21 76 72
113 30 21 59 38 65 38 34 0 202 -221 271 -356 93 -181 131 -329 140 -541 l6
-143 -1287 0 -1286 0 0 114 c0 255 86 523 234 730 51 71 164 196 177 196 5 0
34 -16 64 -37z m352 -173 c298 -103 661 -97 956 14 37 14 67 21 67 15 0 -5
-12 -33 -26 -62 -131 -257 -427 -388 -704 -311 -172 49 -338 197 -399 358 -10
25 -9 28 6 21 10 -4 55 -20 100 -35z"/>
<path d="M1310 2760 c-140 -18 -310 -125 -310 -196 0 -34 42 -74 77 -74 18 0
46 14 76 39 73 61 145 84 242 79 92 -5 148 -27 213 -81 63 -53 117 -48 142 12
17 43 -9 83 -88 138 -98 67 -231 98 -352 83z"/>
<path d="M2565 2759 c-148 -18 -315 -122 -315 -195 0 -33 42 -74 76 -74 15 0
46 16 76 40 76 60 146 83 243 78 90 -5 148 -27 216 -84 59 -49 111 -45 134 9
19 46 2 80 -66 131 -82 62 -146 85 -279 100 -14 1 -52 -1 -85 -5z"/>
<path d="M932 2268 c-40 -20 -46 -90 -10 -120 17 -15 40 -18 130 -18 60 0 118
5 129 11 46 24 42 105 -7 128 -31 14 -211 13 -242 -1z"/>
<path d="M2815 2255 c-30 -30 -32 -64 -4 -99 20 -25 23 -26 138 -26 110 0 119
1 139 23 31 33 29 80 -4 106 -23 18 -41 21 -136 21 -102 0 -110 -1 -133 -25z"/>
<path d="M1575 2005 c-39 -38 -33 -71 22 -123 106 -98 248 -152 402 -152 160
0 293 48 398 143 44 41 53 55 53 83 0 21 -8 42 -20 54 -31 31 -71 25 -127 -20
-106 -84 -200 -115 -326 -108 -104 7 -180 35 -259 99 -71 57 -105 63 -143 24z"/>
<path d="M3415 4430 c-115 -37 -205 -130 -241 -248 -24 -79 -24 -246 0 -327
64 -214 238 -401 493 -529 40 -20 82 -36 94 -36 33 0 196 88 281 153 234 176
350 416 317 657 -24 170 -115 286 -260 331 -107 33 -204 19 -295 -44 l-48 -34
-44 33 c-82 63 -188 79 -297 44z m159 -141 c26 -7 58 -31 101 -75 39 -39 72
-64 85 -64 13 0 45 24 83 64 86 89 150 104 242 59 85 -43 117 -104 123 -233 3
-79 0 -106 -18 -159 -53 -159 -204 -316 -398 -415 -33 -17 -34 -17 -99 19
-139 76 -272 202 -331 313 -107 202 -59 438 99 487 55 17 65 17 113 4z"/>
</g>
</svg>
